<?xml version="1.0" encoding="UTF-8" standalone="no"?>
<!-- Created with Inkscape (http://www.inkscape.org/) -->

<svg
   xmlns:dc="http://purl.org/dc/elements/1.1/"
   xmlns:cc="http://creativecommons.org/ns#"
   xmlns:rdf="http://www.w3.org/1999/02/22-rdf-syntax-ns#"
   xmlns:svg="http://www.w3.org/2000/svg"
   xmlns="http://www.w3.org/2000/svg"
   xmlns:xlink="http://www.w3.org/1999/xlink"
   xmlns:sodipodi="http://sodipodi.sourceforge.net/DTD/sodipodi-0.dtd"
   xmlns:inkscape="http://www.inkscape.org/namespaces/inkscape"
   width="1414"
   height="1000"
   id="svg2"
   version="1.1"
   inkscape:version="0.48.0 r9654"
   sodipodi:docname="airplug.svg"
   inkscape:export-filename="/home/james/airplug/airplug-branding/airplug.png"
   inkscape:export-xdpi="90"
   inkscape:export-ydpi="90">
  <sodipodi:namedview
     id="base"
     pagecolor="#ffffff"
     bordercolor="#666666"
     borderopacity="1.0"
     inkscape:pageopacity="0.0"
     inkscape:pageshadow="2"
     inkscape:zoom="0.70710678"
     inkscape:cx="491.46428"
     inkscape:cy="644.96603"
     inkscape:document-units="px"
     inkscape:current-layer="layer1"
     showgrid="false"
     showguides="true"
     inkscape:guide-bbox="true"
     inkscape:snap-global="false"
     fit-margin-top="0"
     fit-margin-left="0"
     fit-margin-right="0"
     fit-margin-bottom="0"
     inkscape:window-width="1360"
     inkscape:window-height="720"
     inkscape:window-x="0"
     inkscape:window-y="0"
     inkscape:window-maximized="1">
    <sodipodi:guide
       orientation="1,0"
       position="707,0"
       id="guide6759" />
    <sodipodi:guide
       orientation="1,0"
       position="1414,0"
       id="guide6763" />
    <sodipodi:guide
       orientation="0,1"
       position="0,1000"
       id="guide6765" />
    <sodipodi:guide
       orientation="0,1"
       position="0,500"
       id="guide6767" />
    <sodipodi:guide
       orientation="0,1"
       position="0,0"
       id="guide6782" />
    <sodipodi:guide
       orientation="1,0"
       position="0,0"
       id="guide6784" />
  </sodipodi:namedview>
  <defs
     id="defs4">
    <linearGradient
       id="linearGradient6790">
      <stop
         style="stop-color:#000000;stop-opacity:1;"
         offset="0"
         id="stop6792" />
      <stop
         id="stop6798"
         offset="0.5"
         style="stop-color:#000000;stop-opacity:0;" />
      <stop
         style="stop-color:#000000;stop-opacity:1;"
         offset="1"
         id="stop6794" />
    </linearGradient>
    <linearGradient
       id="linearGradient6771">
      <stop
         style="stop-color:#000000;stop-opacity:0;"
         offset="0"
         id="stop6773" />
      <stop
         style="stop-color:#000000;stop-opacity:1;"
         offset="1"
         id="stop6775" />
    </linearGradient>
    <linearGradient
       id="linearGradient6432">
      <stop
         style="stop-color:#cee3ea;stop-opacity:1;"
         offset="0"
         id="stop6434" />
      <stop
         style="stop-color:#ffffff;stop-opacity:1;"
         offset="1"
         id="stop6436" />
    </linearGradient>
    <radialGradient
       inkscape:collect="always"
       xlink:href="#linearGradient6771"
       id="radialGradient6777"
       cx="961"
       cy="296.5"
       fx="961"
       fy="296.5"
       r="961"
       gradientTransform="matrix(1,0,0,0.61706555,2,413.04005)"
       gradientUnits="userSpaceOnUse" />
  </defs>
  <metadata
     id="metadata7">
    <rdf:RDF>
      <cc:Work
         rdf:about="">
        <dc:format>image/svg+xml</dc:format>
        <dc:type
           rdf:resource="http://purl.org/dc/dcmitype/StillImage" />
        <dc:title></dc:title>
      </cc:Work>
    </rdf:RDF>
  </metadata>
  <g
     inkscape:label="Layer 1"
     inkscape:groupmode="layer"
     id="layer1"
     transform="translate(831.09448,-154.93554)">
    <g
       id="g6552"
       transform="matrix(5.6551089,0,0,5.6551089,3811.9765,-5310.2539)">
      <path
         sodipodi:nodetypes="cccczzsssccccsscccccsccccccccsccccsccccccccccccc"
         inkscape:connector-curvature="0"
         id="path4198"
         d="m -749.1679,1071.3115 c -2.08,0.019 -4.27437,2.2249 -6.56618,6.6354 -3.13925,6.5288 -4.81437,10.0856 -5.0456,10.644 -0.61629,1.3097 -1.14695,2.4507 -1.5897,3.4329 -8.02661,2.6698 -19.02339,6.447 -24.84645,4.4797 -5.82306,-1.9673 -0.31239,-8.1475 1.2726,-8.8303 1.58499,-0.6828 0.33853,-3.0998 -1.17026,-1.6856 -0.51275,0.4806 -0.8752,1.222 -2.15391,2.587 -3.51121,3.7483 -2.50754,8.5182 1.49444,9.7389 2.88215,0.8791 5.34322,0.7962 8.23938,0.5069 1.92823,-0.2371 2.36966,-0.2727 4.30833,-0.622 4.32781,-1.0715 7.87414,-1.8153 11.54266,-3.0412 -0.25365,0.6525 -0.75001,1.6639 -1.52058,3.1333 -2.96595,5.797 -4.44658,8.9491 -4.44658,9.4691 0,1.0594 0.49229,1.5897 1.47451,1.5897 0.86666,0 1.66045,-0.9082 2.37304,-2.7185 0.44295,-1.1364 0.86286,-2.2012 1.26716,-3.2025 0.42371,-0.9824 0.76707,-1.8524 1.03676,-2.6036 1.32639,-3.0211 2.28685,-5.2664 2.92599,-6.8425 1.91949,-0.807 3.47971,-1.2685 5.06864,-1.6819 3.31254,-0.7896 5.93043,-1.1749 7.85636,-1.1749 0.6355,0 1.08201,0.01 1.31324,0.047 1.07848,10.2264 3.2842,15.3441 6.63529,15.3441 0.50074,-0.019 1.10747,-0.1757 1.82012,-0.4839 0.82803,-0.3466 1.24407,-0.7701 1.2441,-1.2901 0,-0.3852 -0.0837,-0.6866 -0.27645,-0.8986 -0.17336,-0.1914 -0.42911,-0.2701 -0.73726,-0.2303 -0.19229,0.019 -0.31475,0.029 -0.39168,0.069 -0.21185,0.077 -0.50584,0.2603 -0.85245,0.5298 -0.38535,0.2314 -0.65254,0.3456 -0.80638,0.3456 -1.42519,0 -2.76076,-4.251 -4.03186,-12.7637 -0.0769,-0.4429 -0.22192,-0.668 -0.4147,-0.668 2.44588,0.019 3.66319,0.5153 3.66323,1.4974 -0.19277,0.578 -0.27651,0.8818 -0.27645,0.9217 -6e-5,0.6548 0.19091,0.9906 0.57596,0.9906 0.17337,0 0.39846,-0.073 0.66814,-0.2073 0.67387,-0.3466 1.01369,-0.9152 1.01373,-1.705 -0.0192,-2.311 -1.87021,-3.6009 -5.52942,-3.8706 -0.38519,-5.8354 -0.8775,-10.1247 -1.4745,-12.8789 -0.15408,-0.8281 -0.49373,-1.6983 -1.01372,-2.6034 -0.77039,-1.3097 -1.64807,-1.9584 -2.64952,-1.9585 z m -0.59902,2.3039 c 0.98221,1e-4 1.75293,2.0493 2.35001,6.1515 0.48139,4.0637 0.78314,6.9832 0.89853,8.7549 -3.94812,0.3083 -8.09241,1.1019 -12.46424,2.3731 2.21481,-5.1231 3.55418,-8.2331 4.0549,-9.3309 2.48447,-5.2962 4.21708,-7.9485 5.1608,-7.9486 z"
         style="font-size:12px;font-style:normal;font-variant:normal;font-weight:normal;font-stretch:normal;line-height:125%;letter-spacing:0px;word-spacing:0px;fill:#000000;fill-opacity:1;stroke:none;font-family:Angelina;-inkscape-font-specification:Angelina" />
      <path
         d="m -735.90778,1096.5842 c 0,-1.5791 0.22137,-3.6303 0.66444,-6.1533 0.59703,-3.5051 1.44446,-5.2576 2.54219,-5.2576 0.82815,0 1.24225,0.4718 1.24225,1.4155 0,0.52 -0.25981,1.3674 -0.78003,2.5422 -0.5585,1.4252 -0.95332,3.7267 -1.18442,6.9044 0.0394,0.7704 0.0576,1.3963 0.0576,1.8777 0,0.462 -0.0198,0.7704 -0.0576,0.9245 l 0.7222,3.4667 c 0.48171,1.5406 1.20371,2.3112 2.16669,2.3112 0.23123,0 0.39492,-0.039 0.49107,-0.1161 0.23123,-0.3465 0.58738,-0.6451 1.06883,-0.8954 0.38507,0.3464 0.5778,0.6644 0.5778,0.9533 0,0.5585 -0.33723,1.0111 -1.01113,1.3578 -0.5585,0.308 -1.03034,0.4717 -1.41553,0.491 -1.77182,0 -3.1296,-1.406 -4.07332,-4.2178 -0.67406,-1.9258 -1.01109,-3.7939 -1.01109,-5.6043 m 1.90665,-19.5866 c 0,-0.3465 0.15383,-0.7221 0.46197,-1.1265 0.30815,-0.4043 0.68369,-0.6068 1.12668,-0.6068 0.94367,0 1.41556,0.5585 1.41556,1.6755 0,1.0593 -0.49106,1.589 -1.47334,1.589 -0.42353,0 -0.77998,-0.1737 -1.0689,-0.52 -0.30814,-0.4043 -0.46197,-0.7416 -0.46197,-1.0112"
         style="font-size:12px;font-style:normal;font-variant:normal;font-weight:normal;font-stretch:normal;line-height:125%;letter-spacing:0px;word-spacing:0px;fill:#000000;fill-opacity:1;stroke:none;font-family:Angelina;-inkscape-font-specification:Angelina"
         id="path4200"
         inkscape:connector-curvature="0" />
      <path
         d="m -727.41451,1103.2576 c 0.34661,-3.7941 0.52002,-6.9429 0.52002,-9.4466 0,-0.8282 -0.0868,-2.2341 -0.25983,-4.2178 -0.19278,-2.003 -0.28892,-3.5822 -0.28892,-4.7377 0,-0.3274 0.16369,-0.6837 0.49106,-1.0689 0.3466,-0.385 0.72219,-0.5778 1.12664,-0.5778 0.59706,0 1.04961,0.318 1.35781,0.9534 0.19278,0.5585 0.2697,0.9727 0.23123,1.2422 -0.23123,1.9452 -0.3466,3.6014 -0.3466,4.9689 2.29182,-5.9125 4.7955,-8.8688 7.51102,-8.8688 1.73333,0 2.76371,0.7991 3.09112,2.3976 0.0394,0.1928 0.0495,0.3658 0.0295,0.52 -4e-5,0.6164 -0.32738,0.9246 -0.98222,0.9246 -0.26969,0 -0.47184,-0.1061 -0.60668,-0.3177 l -0.23123,-0.6933 -0.0576,-0.2889 c -0.0769,-0.385 -0.30815,-0.5874 -0.69331,-0.6067 -0.9052,0 -2.07039,0.9919 -3.49555,2.9756 -1.77187,2.4844 -2.95629,4.574 -3.5533,6.2687 -0.67407,1.9068 -1.0111,4.0445 -1.0111,6.4134 0,0.1928 0,0.3757 0,0.5489 0,0.1154 0.0576,1.6562 0.17353,4.6221 0,0.3468 -0.17353,0.6838 -0.52,1.0111 -0.38505,0.3082 -0.74147,0.462 -1.0689,0.462 -0.96293,0 -1.44444,-0.6644 -1.44444,-1.9933 0,-0.1538 0.01,-0.3175 0.0294,-0.491"
         style="font-size:12px;font-style:normal;font-variant:normal;font-weight:normal;font-stretch:normal;line-height:125%;letter-spacing:0px;word-spacing:0px;fill:#000000;fill-opacity:1;stroke:none;font-family:Angelina;-inkscape-font-specification:Angelina"
         id="path4202"
         inkscape:connector-curvature="0" />
      <path
         d="m -711.72103,1108.8756 c 0,-4.4102 0.4526,-11.4109 1.35776,-21.002 0.23124,-2.7154 1.04,-4.0733 2.42666,-4.0733 0.82816,0 1.2422,0.4526 1.2422,1.3579 0,0.038 -0.01,0.096 -0.0294,0.173 -0.0198,0.076 -0.0294,0.1351 -0.0294,0.1736 l -1.35776,6.9908 c 3.83254,-5.5657 7.65547,-8.3485 11.46879,-8.3486 2.48445,10e-5 3.72665,1.7719 3.72665,5.3155 0,2.9274 -1.29997,6.2015 -3.89995,9.8222 -2.71558,3.717 -5.33482,5.5755 -7.85772,5.5755 -1.88743,0 -2.84075,-0.9727 -2.85999,-2.9178 0,-0.597 0.20214,-1.3385 0.60667,-2.2244 l 1.18442,0 c 0.0394,0.2697 0.0198,0.6643 -0.0576,1.1844 -0.0769,0.6356 -0.11537,1.0303 -0.11537,1.1846 0,0.4428 0.25045,0.6547 0.75109,0.6355 2.36886,0 4.66069,-1.9163 6.87551,-5.749 1.96444,-3.3509 2.94665,-6.0665 2.94665,-8.1467 0,-1.8873 -0.51039,-2.8405 -1.53112,-2.8599 -2.00294,1e-4 -4.37182,1.6852 -7.10658,5.0557 -2.44593,2.9658 -3.88071,5.4695 -4.30444,7.5109 -0.67407,3.274 -1.04961,7.1933 -1.12667,11.7576 0,0.1929 0,0.3852 0,0.5781 0,5.9317 0.90521,8.8975 2.71557,8.8975 0.0769,-0.039 0.17355,-0.077 0.28893,-0.1154 0.4817,-0.1928 0.95327,-0.3757 1.41554,-0.5488 l 0,1.0688 c -4e-5,0.3851 -0.2889,0.703 -0.86671,0.9534 -0.38504,0.1928 -0.74145,0.2889 -1.06884,0.2889 -1.57928,-0.1537 -2.8022,-1.2999 -3.66885,-3.4377 -0.65485,-1.6564 -1.01112,-3.6015 -1.06891,-5.8356 -0.0394,-0.7125 -0.0576,-1.8007 -0.0576,-3.2644"
         style="font-size:12px;font-style:normal;font-variant:normal;font-weight:normal;font-stretch:normal;line-height:125%;letter-spacing:0px;word-spacing:0px;fill:#000000;fill-opacity:1;stroke:none;font-family:Angelina;-inkscape-font-specification:Angelina"
         id="path4204"
         inkscape:connector-curvature="0" />
      <path
         d="m -691.49898,1094.6915 c 0,-4.9113 0.2983,-9.8897 0.89556,-14.9356 0.65484,-5.5658 1.36743,-8.3392 2.13779,-8.3199 0.98217,0 1.47329,0.5489 1.47329,1.6468 0,0.1543 -0.0576,0.4717 -0.17355,0.9533 l -0.37569,1.9932 c -0.34661,2.0031 -0.57774,3.5437 -0.69331,4.6222 -0.5585,4.6608 -0.83776,9.7259 -0.83776,15.1953 0,6.8564 1.2037,10.2941 3.61108,10.3135 0.44275,0 0.77999,-0.183 1.01113,-0.5491 l 0.6355,0 0.49108,0.5491 0,-0.057 0.0576,0.057 c 0.0394,0.1153 0.0576,0.2888 0.0576,0.5198 -0.63551,0.8281 -1.44445,1.2423 -2.42663,1.2423 -1.4252,0 -2.66738,-0.8283 -3.72663,-2.4844 -1.17481,-1.8104 -1.86816,-4.526 -2.08001,-8.1466 0,-0.2312 -0.01,-0.6452 -0.0294,-1.2423 -0.0198,-0.5969 -0.0295,-1.0497 -0.0295,-1.3576"
         style="font-size:12px;font-style:normal;font-variant:normal;font-weight:normal;font-stretch:normal;line-height:125%;letter-spacing:0px;word-spacing:0px;fill:#000000;fill-opacity:1;stroke:none;font-family:Angelina;-inkscape-font-specification:Angelina"
         id="path4206"
         inkscape:connector-curvature="0" />
      <path
         d="m -683.71688,1100.0812 c 0,-0.9822 0.49106,-1.4733 1.47335,-1.4733 1.50217,0 2.2533,0.4142 2.2533,1.2422 0,1.3095 -0.5778,1.9548 -1.73332,1.9356 -0.44272,0 -0.87631,-0.154 -1.30003,-0.462 -0.46195,-0.3466 -0.6933,-0.7607 -0.6933,-1.2422"
         style="font-size:12px;font-style:normal;font-variant:normal;font-weight:normal;font-stretch:normal;line-height:125%;letter-spacing:0px;word-spacing:0px;fill:#000000;fill-opacity:1;stroke:none;font-family:Angelina;-inkscape-font-specification:Angelina"
         id="path4208"
         inkscape:connector-curvature="0" />
      <path
         d="m -677.24027,1101.2491 c 0,-1.0015 0.53922,-3.7266 1.61774,-8.1754 1.21335,-5.046 2.2533,-7.6074 3.11995,-7.6844 0.30815,0 0.70297,0.1345 1.18446,0.4043 0.38507,0.2311 0.5874,0.5102 0.60668,0.8377 -4e-5,0.077 -0.0868,0.318 -0.25982,0.7222 l -0.46198,1.3 c -2.40742,6.5481 -3.61112,11.045 -3.61112,13.4909 0,1.5794 0.27905,2.3593 0.83781,2.3401 0.75109,0 1.81033,-0.8667 3.17776,-2.6 1.57922,-1.9645 3.10067,-4.3911 4.5644,-7.28 1.6948,-3.274 2.54218,-5.7777 2.54218,-7.511 0,-0.5585 0.18291,-1.1073 0.54889,-1.6465 0.34661,-0.5201 0.76071,-0.7801 1.2422,-0.7801 0.94372,0 1.41555,0.4815 1.41555,1.4443 0,0.2697 -0.16368,1.175 -0.49106,2.7155 -0.30814,1.5408 -0.46198,3.1587 -0.46198,4.8534 0,5.874 0.90517,8.8111 2.71559,8.8111 0.44275,0 0.91478,-0.2598 1.41549,-0.78 0.23123,-0.1924 0.54889,-0.4427 0.95334,-0.7511 0.44274,0.3466 0.66444,0.6354 0.66444,0.8666 0,0.6741 -0.48168,1.2905 -1.44443,1.8489 -0.78964,0.4427 -1.39631,0.6547 -1.81998,0.6355 -2.92739,0 -4.62219,-3.2067 -5.08441,-9.6198 l -0.0576,-0.4912 c -1.96445,4.1023 -3.26442,6.6638 -3.90001,7.6844 -2.04144,3.1199 -4.15997,4.6799 -6.35549,4.6799 -1.77182,0 -2.65775,-1.7717 -2.65775,-5.3155"
         style="font-size:12px;font-style:normal;font-variant:normal;font-weight:normal;font-stretch:normal;line-height:125%;letter-spacing:0px;word-spacing:0px;fill:#000000;fill-opacity:1;stroke:none;font-family:Angelina;-inkscape-font-specification:Angelina"
         id="path4210"
         inkscape:connector-curvature="0" />
      <path
         sodipodi:nodetypes="scsccccccczcscccscscssccsccscsccssscccsccsscssccczzc"
         inkscape:connector-curvature="0"
         id="path4212"
         d="m -641.96634,1081.4259 c -2.52297,0 -5.7896,2.5035 -9.81471,7.5106 -3.98668,4.9689 -5.99021,9.0599 -5.99021,12.2568 0,1.0209 0.26333,1.8605 0.78333,2.5345 0.55852,0.7895 1.39049,1.1979 2.48825,1.1979 1.96443,-0.019 4.16635,-1.4235 6.61225,-4.2162 1.09778,-1.3287 2.73106,-3.6301 4.90736,-6.8657 0.7896,-1.2324 1.2363,-1.8431 1.31323,-1.8431 1.23253,0.019 1.84309,3.511 1.84314,10.4829 -0.01,1.5889 -0.14818,3.1871 -0.39167,4.7922 -9.99852,0.3347 -16.32571,0.4932 -17.9048,4.0783 -1.57909,3.5851 0.49245,7.0215 2.3072,9.054 1.92595,2.1763 4.08969,3.2486 6.49706,3.2486 3.23555,0 6.04045,-2.0875 8.40934,-6.2667 1.31861,-2.337 2.27223,-4.9474 2.85685,-7.8333 0.19189,7e-4 0.38413,-6e-4 0.576,0 4.35493,0.02 8.70833,-0.083 13.06323,-0.069 2.18704,0.01 4.14979,0.061 6.33579,0.092 5.05463,0.082 10.1056,0.2062 15.15982,0.023 0.87773,-0.032 1.74919,-0.095 2.62648,-0.1383 8.98747,-0.909 15.75809,-2.6902 21.86422,-8.3632 0.80337,-0.7464 -0.49619,-1.5545 -0.95109,-1.1453 -5.56749,5.0085 -13.43999,7.2042 -20.95922,7.389 -5.89934,0.035 -11.79621,-0.065 -17.69413,-0.1844 -1.66838,-0.035 -4.72005,-0.1199 -6.38187,-0.1382 -4.37017,-0.049 -8.74066,0.023 -13.10933,0.1382 -0.046,0 -0.0922,0 -0.13823,0 0.20407,-1.5996 0.32256,-3.2703 0.32256,-5.0225 0,-2.2535 -0.22541,-4.7187 -0.66814,-7.3956 -0.67408,-3.7555 -1.62052,-5.6216 -2.83382,-5.6216 -0.55852,0 -1.7683,1.1793 -3.61717,3.5481 -2.86961,3.6206 -4.65555,5.8151 -5.36814,6.5662 -2.19553,2.3687 -3.97772,3.5479 -5.3451,3.5479 -0.30814,0 -0.46078,-0.4082 -0.46078,-1.1981 0,-1.1169 0.49228,-2.6434 1.4745,-4.6077 0.82815,-1.6564 1.6219,-2.9117 2.37305,-3.7785 1.03996,-1.7334 2.41369,-3.588 4.14707,-5.5524 2.34959,-2.7347 4.21181,-4.101 5.59852,-4.101 0.44302,0.02 0.66813,0.4771 0.66813,1.3823 l 0,0.4148 c -0.0379,0.2504 -0.0461,0.483 -0.0461,0.7142 0.0192,1.4059 0.48096,2.0966 1.4054,2.0966 0.86661,0 1.31324,-0.7709 1.31324,-2.3501 0,-0.8858 -0.25557,-1.7865 -0.73724,-2.6725 -0.59708,-1.1362 -1.43654,-1.705 -2.53434,-1.705 z m 1.33626,28.1308 c -0.2515,1.1452 -0.5517,2.3024 -0.92156,3.4557 -1.75258,5.4889 -4.45449,8.2861 -7.66037,8.2862 -1.77181,-10e-5 -3.65199,-0.7271 -4.86126,-2.2288 -1.20928,-1.5018 -3.058,-4.4732 -1.83823,-6.7889 1.21978,-2.3158 11.00684,-2.7072 15.28142,-2.7242 z"
         style="font-size:12px;font-style:normal;font-variant:normal;font-weight:normal;font-stretch:normal;line-height:125%;letter-spacing:0px;word-spacing:0px;fill:#000000;fill-opacity:1;stroke:none;font-family:Angelina;-inkscape-font-specification:Angelina" />
    </g>
    <path
       style="fill:#ffffff;fill-opacity:1;stroke:none"
       d="m -88.365573,164.89376 -2.930559,8.79167 -21.002338,13.18752 -20.02551,24.90976 -13.18752,32.72461 0,34.67831 6.34957,27.35188 28.81716,22.46764 32.23616,2.93056 39.074152,-16.11808 L -4.3561394,287.00044 7.3661775,253.29899 4.4355381,211.2943 -16.566818,176.61599 -42.94186,161.47476 -69.805344,159.03263 z"
       id="path3934"
       inkscape:connector-curvature="0" />
    <path
       style="fill:#000000;fill-opacity:1;stroke:none"
       d="m -59.188812,154.95674 c -10.81143,0.65082 -36.096176,2.91916 -32.982817,15.10993 -25.345851,9.89322 -43.561421,33.29764 -54.913811,57.33141 -11.74021,30.37061 -9.56891,69.47276 13.98747,93.68157 8.47417,9.12973 19.8022,13.83088 28.75206,16.14605 -9.96584,8.67776 -10.47251,21.61021 -2.33126,18.47729 -3.47492,38.40491 -14.01893,81.99112 -42.56684,109.48225 -27.48108,30.75162 -58.43799,65.40165 -58.54019,109.13688 -0.39143,19.61145 18.34731,37.65947 21.67195,51.46012 -2.79691,2.45898 -3.93914,6.17732 -3.79905,10.18841 0.19672,5.63232 4.31855,24.00011 4.83517,24.26224 0.51662,0.26221 1.84714,-0.0654 4.48981,-0.43172 2.01684,5.04904 2.38094,10.78261 4.57615,15.54166 1.18434,0.64028 10.64529,-1.98798 10.96549,-3.02199 0.3202,-1.03401 -2.82134,-10.80784 -4.23077,-16.23238 2.04638,-0.52392 4.62527,-0.71846 5.0942,-1.8132 0.46893,-1.09477 -3.83631,-16.43563 -5.95764,-21.49927 -1.82028,-4.3451 -4.7307,-9.44581 -9.32499,-9.67037 -2.32631,-12.57414 -16.72073,-26.4931 -18.06363,-39.28699 -4.20907,-40.10017 20.94436,-69.20391 44.3981,-98.42925 19.6578,-22.38338 39.76138,-45.73901 47.48836,-75.29063 5.26409,-17.054 8.671134,-36.41873 8.5479,-54.30941 11.715746,4.52046 4.79912,-9.80158 1.122446,-17.52752 6.248877,0.36746 14.326169,-0.79121 20.808542,-1.8132 32.517839,-5.12673 60.057168,-21.40851 78.6579827,-51.80548 C 17.519507,258.81782 15.042511,226.48296 4.3592605,199.94117 -7.0879093,175.23142 -30.542364,154.17787 -59.188812,154.95674 z m -3.971753,9.1523 c 10.307971,-0.22048 17.876017,1.39703 27.025198,6.47569 1.730912,0.98997 3.599303,1.92846 5.266887,3.02198 9.255723,6.06932 16.471431,14.41658 21.758301,24.08956 2.7522637,5.48856 3.8911716,7.31264 5.8713,13.2104 3.3597562,10.00666 4.6127595,20.4068 4.9215214,30.91061 -0.011034,2.71913 -0.024877,5.40075 -0.172698,8.11618 -0.78281863,14.61525 -4.3702541,25.07134 -13.4694194,36.60921 -1.970348,2.22954 -3.874811,4.61013 -5.957629,6.73471 -11.044766,11.26759 -24.551713,19.98822 -38.940456,26.33446 -2.752324,0.97941 -5.492319,2.17693 -8.288881,3.02198 -13.596576,4.10731 -27.631958,4.67034 -41.358049,0.86342 -2.33068,-0.81979 -4.81481,-1.5174 -7.08007,-2.50392 -3.85383,-1.67843 -8.63759,-4.62826 -11.82892,-7.42546 -5.24004,-4.5925 -8.56896,-10.62741 -11.31087,-16.92313 -0.77965,-2.34414 -1.58794,-4.52561 -2.2449,-6.90738 -3.72344,-13.48958 -3.71748,-27.90913 -2.15856,-41.70342 1.25294,-6.94147 1.24369,-8.78368 3.54004,-15.36896 3.06835,-8.7997 8.52597,-16.50673 13.81479,-24.08955 6.2112,-8.3797 12.75325,-16.62912 20.98123,-23.13978 4.206331,-3.17611 8.365538,-6.47658 13.124051,-8.80694 3.547451,-1.33028 2.997538,-5.34586 0.518054,-6.56203 0.445618,-0.11493 0.919625,-0.21081 1.381484,-0.51804 1.91657,-1.07013 3.808293,-2.42543 6.043967,-2.67662 6.162317,-1.12339 12.291601,-2.39555 18.563629,-2.76297 z"
       id="path5920"
       inkscape:connector-curvature="0"
       sodipodi:nodetypes="cccccccccscccscsscsccccscccccscscccccccccccccccccccc" />
    <path
       style="font-size:40.14980316px;font-style:normal;font-variant:normal;font-weight:normal;font-stretch:normal;line-height:125%;letter-spacing:0px;word-spacing:0px;fill:#000000;fill-opacity:1;stroke:none;font-family:Garamond Premier Pro;-inkscape-font-specification:Garamond Premier Pro"
       d="m -170.50725,693.68296 c 0.68008,7.98551 0.56064,12.1321 7.74778,10.47459 6.00999,-1.38601 5.69159,-6.04142 1.49739,-12.62383 -0.011,-1.34687 0.92034,-3.00638 0.0323,-3.94329 -0.8753,-0.92345 -14.13714,1.94099 -11.26151,4.34457"
       id="path4990"
       inkscape:connector-curvature="0" />
    <path
       style="font-size:15.52143669px;font-style:normal;font-variant:normal;font-weight:bold;font-stretch:normal;line-height:125%;letter-spacing:0px;word-spacing:0px;fill:#000000;fill-opacity:1;stroke:none;font-family:Angelina;-inkscape-font-specification:Angelina"
       d="m -381.20357,1082.6735 c -2.53283,0.2043 -7.45312,2.6644 -5.06782,5.6581 1.57197,1.6119 3.88792,0.058 5.45416,0.3847 3.40669,7.2935 1.0251,16.0539 -1.81805,23.2482 -0.59119,2.4018 -2.99762,5.2741 -5.31784,2.8179 -4.83659,-5.166 -6.34589,-12.6521 -7.09033,-19.5208 1.55436,-4.1056 -5.35918,-7.3433 -6.99946,-3.0227 -3.44986,10.0005 -6.40247,20.7548 -13.22637,29.1565 -0.51799,-1.48 0.0833,-5.1182 0.13622,-7.363 0.23817,-6.3183 2.71643,-12.5117 2.86339,-18.7708 -0.32006,-4.0418 -6.22468,-3.9625 -7.09042,-0.2715 -2.56663,7.4059 -2.10875,15.5753 -2.61341,23.3394 0.38288,4.123 1.54794,11.2643 7.06763,10.7489 5.83852,-1.9757 8.07395,-8.7261 10.68462,-13.7171 1.66714,-2.1079 3.34726,-12.6208 5.00032,-7.8133 2.63995,5.88 5.97244,13.875 13.22208,14.8265 6.85443,-0.1125 9.58042,-7.9888 11.74912,-13.2487 3.33374,-7.9643 3.27479,-18.3843 -2.68159,-25.0444 -1.18521,-0.9784 -2.71549,-1.5448 -4.27246,-1.4086 z"
       id="path6661"
       inkscape:connector-curvature="0" />
    <path
       style="font-size:15.52143669px;font-style:normal;font-variant:normal;font-weight:bold;font-stretch:normal;line-height:125%;letter-spacing:0px;word-spacing:0px;fill:#000000;fill-opacity:1;stroke:none;font-family:Angelina;-inkscape-font-specification:Angelina"
       d="m -351.00131,1085.0366 c -8.69675,1.7677 -13.47743,10.406 -17.88507,17.2937 -3.95247,6.8231 -7.58499,16.8756 -1.5453,23.5893 6.36247,5.6658 16.07147,1.6541 21.52113,-3.4537 4.25275,-3.877 8.32168,-8.995 9.09024,-14.7722 -0.68183,-2.8246 -5.26324,-3.2204 -5.61319,0.058 -3.83719,6.4604 -9.65689,12.9722 -17.33961,14.499 -2.45332,0.5808 -4.94446,-1.0652 -3.97698,-3.749 0.29633,-2.6038 0.74349,-6.0941 2.11345,-7.8862 7.06382,2.7506 13.97631,-2.9024 16.88513,-9.0221 2.94227,-4.5235 5.56941,-12.3927 0.0222,-16.0217 -0.99357,-0.5428 -2.14047,-0.6778 -3.27253,-0.5201 z m 0.2952,6.4089 c -0.74329,5.6509 -4.86033,11.2779 -10.15833,13.385 -2.73565,0.475 1.1444,-2.9542 1.62032,-4.0576 2.85334,-2.9444 4.9121,-7.4046 8.53801,-9.3274 z"
       id="path6663"
       inkscape:connector-curvature="0" />
    <path
       style="font-size:15.52143669px;font-style:normal;font-variant:normal;font-weight:bold;font-stretch:normal;line-height:125%;letter-spacing:0px;word-spacing:0px;fill:#000000;fill-opacity:1;stroke:none;font-family:Angelina;-inkscape-font-specification:Angelina"
       d="m -330.73002,1066.5835 c -4.26684,1.5566 -4.62653,7.3892 -6.22686,11.0675 -3.56817,13.5112 -8.09932,27.5045 -6.20402,41.6103 0.28839,2.9864 3.51752,5.0324 5.795,5.0449 -1.67569,4.4326 2.67672,8.4312 7.04496,7.704 9.60034,-0.7523 16.58348,-8.787 22.90736,-15.249 4.11264,-5.0207 9.36079,-11.6993 6.79495,-18.5662 -3.73309,-6.4277 -12.68428,-5.3091 -18.22595,-2.1139 -7.24034,3.9765 -13.4223,10.5359 -18.02137,16.8396 -0.0838,-14.7499 5.7492,-28.6384 10.81737,-42.2012 0.12848,-2.3782 -2.57359,-4.0988 -4.68144,-4.136 z m 21.72567,33.0201 c 2.91442,-0.6 2.94863,2.6386 1.81805,4.4087 -4.43709,8.1665 -11.50993,15.0205 -19.29405,19.9303 -1.31328,0.674 -4.261,2.1477 -5.06782,1.1592 2.04031,-1.619 2.63758,-6.1403 -0.99991,-5.8179 5.48594,-7.6418 11.81474,-15.944 20.90757,-19.2942 0.85762,-0.2659 1.7387,-0.3732 2.63616,-0.3845 z"
       id="path6665"
       inkscape:connector-curvature="0" />
    <path
       style="font-size:15.52143669px;font-style:normal;font-variant:normal;font-weight:bold;font-stretch:normal;line-height:125%;letter-spacing:0px;word-spacing:0px;fill:#000000;fill-opacity:1;stroke:none;font-family:Angelina;-inkscape-font-specification:Angelina"
       d="m -245.50904,1084.9004 c -8.40743,1.7907 -14.10545,9.2533 -19.49389,15.4111 -5.11463,7.3517 -11.63056,15.5278 -10.98113,24.9945 0.55986,4.5813 6.16322,6.0098 9.70384,3.6815 6.61754,-3.3151 11.83765,-9.1471 16.5669,-14.4534 -0.16689,5.0829 3.3911,11.141 9.15846,10.3179 3.96656,-0.066 8.26681,-6.1782 4.54513,-9.0682 -2.53378,-0.9628 -4.36625,1.3632 -5.40872,3.0687 -2.2819,-0.9891 -1.0954,-5.1208 -1.0226,-7.1362 0.14644,-4.7641 2.92581,-9.6009 1.88619,-14.2944 -0.39757,-1.3985 1.85787,-3.0657 1.3181,-4.9766 0.42923,-3.9139 -1.82106,-8.0556 -6.27228,-7.5449 z m -0.8863,6.8171 c -0.69723,1.6672 -0.8482,3.6454 -0.7954,5.2045 -1.22396,4.0172 -2.6354,8.1477 -5.90925,11.1182 -5.05334,5.3981 -9.11823,12.7614 -16.15732,15.7436 -1.3331,-0.2322 0.20998,-2.9266 0.43205,-3.8638 5.34771,-10.1485 12.43716,-19.7223 21.04396,-27.3841 0.27326,-0.1195 1.25511,-1.0525 1.38624,-0.8184 z"
       id="path6667"
       inkscape:connector-curvature="0" />
    <path
       style="font-size:15.52143669px;font-style:normal;font-variant:normal;font-weight:bold;font-stretch:normal;line-height:125%;letter-spacing:0px;word-spacing:0px;fill:#000000;fill-opacity:1;stroke:none;font-family:Angelina;-inkscape-font-specification:Angelina"
       d="m -213.37505,1088.1271 c -4.93109,1.015 -3.7045,7.0836 -5.1133,10.5904 -3.44119,8.3378 -7.64508,17.0246 -14.4989,23.0434 -1.06904,0 -0.43884,-2.8949 -0.49993,-3.9083 0.95845,-8.6412 5.00671,-16.9416 7.27222,-25.2486 -0.56552,-3.2197 -5.93733,-4.6448 -7.22674,-1.136 -3.77733,8.2833 -5.45729,17.5003 -6.81766,26.4751 -0.23071,4.1819 1.00414,10.8708 6.45405,10.5224 8.73291,-0.9336 12.76223,-10.4557 16.20336,-17.3853 0.65066,5.6803 3.13062,13.8863 10.18105,13.4985 3.26024,-0.3279 8.42493,-3.9416 5.72687,-7.4992 -2.09662,-3.5966 -3.9791,2.0653 -6.49953,1.2955 -3.4051,-4.8809 -2.38866,-11.7535 -2.31796,-17.5213 -0.25833,-3.8966 3.60052,-9.3822 -0.38626,-12.2947 -0.74296,-0.3616 -1.64341,-0.5258 -2.47711,-0.4297 z"
       id="path6669"
       inkscape:connector-curvature="0" />
    <path
       style="font-size:15.52143669px;font-style:normal;font-variant:normal;font-weight:bold;font-stretch:normal;line-height:125%;letter-spacing:0px;word-spacing:0px;fill:#000000;fill-opacity:1;stroke:none;font-family:Angelina;-inkscape-font-specification:Angelina"
       d="m -167.6966,1064.4474 c -4.132,1.381 -4.06207,6.9274 -5.13696,10.4404 -0.91977,4.4889 -1.57293,9.5424 -2.63518,13.6939 -6.89269,-2.8206 -13.62181,3.1098 -17.8396,7.9087 -6.4443,7.7211 -12.0825,16.7114 -14.15801,26.6572 -1.11216,4.3908 2.82742,8.4502 7.22671,7.545 7.80528,-1.0942 12.9285,-8.1572 18.04409,-13.4535 1.42649,-0.8774 4.3582,-6.6505 4.63061,-4.5229 0.28842,5.5707 0.57752,13.6275 6.93674,15.5897 3.63755,1.2624 9.09068,-2.9254 5.9086,-6.5675 -1.08962,-2.9839 -4.50754,2.8211 -5.06778,-0.7274 -2.06697,-11.4708 -0.0707,-23.6069 1.99986,-35.0657 0.83875,-6.1504 3.65086,-12.1041 4.36329,-18.2031 -0.45635,-1.8051 -2.40054,-3.3772 -4.27237,-3.2948 z m -11.15826,29.5654 c 3.13517,1.7196 1.55085,6.7794 0,9.2947 -6.00408,7.7964 -12.7022,15.5902 -21.29391,20.3853 -2.30063,1.1847 -0.34157,-2.653 -0.11355,-3.6131 4.43369,-9.1807 10.06195,-18.2965 17.99866,-24.7711 1.02677,-0.6922 2.14387,-1.2969 3.40886,-1.2958 z"
       id="path6671"
       inkscape:connector-curvature="0" />
    <path
       style="font-size:15.52143669px;font-style:normal;font-variant:normal;font-weight:bold;font-stretch:normal;line-height:125%;letter-spacing:0px;word-spacing:0px;fill:#000000;fill-opacity:1;stroke:none;font-family:Angelina;-inkscape-font-specification:Angelina"
       d="m -156.87919,1073.5369 c -4.41753,0.4581 -5.02155,7.4098 -0.56812,8.3859 6.14275,1.4782 6.61706,-9.0417 0.56812,-8.3859 z m -0.45468,16.954 c -4.72452,1.4261 -4.72877,7.7631 -5.68142,11.7944 -1.59276,8.5905 -1.47389,18.9689 4.77236,25.7256 3.09288,3.3668 10.76739,1.2581 9.95383,-3.75 -0.80709,-2.9226 -3.57203,-2.3431 -5.22691,-0.5486 -3.01749,-2.0007 -2.84135,-6.711 -3.13607,-10.0214 -0.53498,-6.5187 1.21228,-12.7912 3.24971,-18.885 0.34496,-2.3969 -1.38103,-4.6787 -3.9315,-4.3177 z"
       id="path6673"
       inkscape:connector-curvature="0" />
    <path
       style="font-size:15.52143669px;font-style:normal;font-variant:normal;font-weight:bold;font-stretch:normal;line-height:125%;letter-spacing:0px;word-spacing:0px;fill:#000000;fill-opacity:1;stroke:none;font-family:Angelina;-inkscape-font-specification:Angelina"
       d="m -129.51759,1086.6725 c -3.07763,0.4637 -5.95809,2.3712 -8.0903,4.2045 -5.22555,0.3282 -6.83609,6.865 -8.70389,10.7492 -2.43374,7.35 -5.58483,16.7772 -0.47728,23.7481 4.54691,5.8967 13.49313,3.0935 17.476,-2.0905 6.1635,-7.8583 12.19928,-18.0545 9.79468,-28.4977 -0.85274,-4.8121 -4.84277,-8.8667 -9.99926,-8.1136 z m 1.11354,5.8861 c 2.86982,0.9675 2.1443,5.2472 2.20442,7.7043 -1.47003,7.5983 -5.02789,15.3735 -10.70376,20.6343 -1.64188,1.7181 -5.54388,2.3724 -5.63599,-0.9997 -1.83993,-9.686 4.3456,-18.4306 9.86294,-25.5436 1.24341,-0.9103 2.65058,-1.8832 4.27239,-1.7953 z"
       id="path6675"
       inkscape:connector-curvature="0" />
    <path
       style="font-size:15.52143669px;font-style:normal;font-variant:normal;font-weight:bold;font-stretch:normal;line-height:125%;letter-spacing:0px;word-spacing:0px;fill:#000000;fill-opacity:1;stroke:none;font-family:Angelina;-inkscape-font-specification:Angelina"
       d="m -85.316283,1086.6499 c -5.713519,1.2572 -4.800675,8.9605 -5.486763,13.3189 -0.842735,14.4241 -3.222037,29.1331 -0.921841,43.495 0.789038,4.9291 4.769638,11.8883 10.658302,9.9996 3.26474,-0.7517 3.154918,-4.4557 2.840649,-7.1135 -2.080832,0.5927 -5.448102,3.4689 -6.204077,-0.2045 -2.218691,-7.4918 -1.374933,-17.7943 -0.545158,-24.0891 2.366031,5.4476 10.092901,3.6871 13.72625,0.4976 7.798965,-6.7143 14.544819,-16.7736 13.521742,-27.589 -0.139525,-4.62 -4.286834,-8.7173 -9.067507,-7.7038 -6.398181,0.6747 -11.642217,5.123 -15.612515,9.863 0.599678,-3.4151 3.54403,-10.9256 -2.908872,-10.4766 z m 19.294014,6.5908 c 2.419798,0.8062 1.092754,4.8847 0.931752,6.7723 -2.40109,6.9392 -5.744264,14.7117 -12.430884,18.4758 -1.712816,0.8958 -2.919144,0.4636 -2.022591,-1.6819 1.646911,-4.1728 -4.10579,-1.8417 -4.204257,-3.8409 2.67725,-7.4161 8.024377,-14.1978 14.521637,-18.7025 0.999033,-0.5318 2.068133,-0.9723 3.204343,-1.0228 z"
       id="path6677"
       inkscape:connector-curvature="0" />
    <path
       style="font-size:15.52143669px;font-style:normal;font-variant:normal;font-weight:bold;font-stretch:normal;line-height:125%;letter-spacing:0px;word-spacing:0px;fill:#000000;fill-opacity:1;stroke:none;font-family:Angelina;-inkscape-font-specification:Angelina"
       d="m -52.091453,1065.5837 c -3.635615,2.5774 -2.89564,8.1833 -3.999689,12.0439 -1.489681,13.5577 -3.189867,27.6164 -0.886331,41.1337 1.116327,5.6881 5.115485,13.1527 11.976378,11.8401 3.349504,-0.4918 5.784339,-4.7406 2.156688,-6.9966 -1.488848,-2.7097 -1.083354,0.6753 -3.156623,1.2247 -3.884541,-0.2431 -4.058322,-5.7497 -4.613321,-8.6134 -1.140473,-15.6946 0.389654,-31.5346 3.15889,-46.9285 0.03952,-2.4136 -2.284185,-4.3473 -4.635992,-3.7039 z"
       id="path6679"
       inkscape:connector-curvature="0" />
    <path
       style="font-size:15.52143669px;font-style:normal;font-variant:normal;font-weight:bold;font-stretch:normal;line-height:125%;letter-spacing:0px;word-spacing:0px;fill:#000000;fill-opacity:1;stroke:none;font-family:Angelina;-inkscape-font-specification:Angelina"
       d="m -13.6398,1084.9004 c -8.206895,1.7025 -13.764398,8.8924 -19.044025,14.8395 -5.274741,7.3994 -11.776144,15.5533 -11.499162,25.1347 0.22463,4.3542 5.394244,6.5461 9.022096,4.4313 7.004841,-3.1386 12.370476,-9.3232 17.294134,-14.7266 -0.04524,4.9128 3.058618,10.7166 8.681153,10.3179 4.0902317,0.108 8.39672717,-5.3482 5.4769315,-8.8401 -2.4142708,-1.4828 -4.8727795,0.7702 -5.7496109,2.7726 -2.0599676,-0.4071 -1.3891276,-4.0913 -1.2953456,-5.7722 0.156097,-5.1967 2.8734115,-10.4789 2.1134641,-15.5673 -0.7172443,-1.3084 1.6545241,-2.6878 1.227223,-4.4087 0.6139626,-4.0524 -1.4675215,-8.7191 -6.2268581,-8.1811 z m -0.886321,6.8171 c -0.579234,1.666 -1.07869,3.553 -0.727185,5.1365 -1.359706,3.7115 -2.342688,7.8053 -5.517357,10.6233 -5.273709,5.5339 -9.402731,13.3053 -16.73096,16.3289 -1.192214,-0.786 0.620202,-3.6425 0.977204,-4.8405 5.568577,-9.8928 12.369573,-19.3345 20.998373,-26.7252 0.179871,0 1.041946,-0.8753 0.999925,-0.5201 z"
       id="path6681"
       inkscape:connector-curvature="0" />
    <path
       style="font-size:15.52143669px;font-style:normal;font-variant:normal;font-weight:bold;font-stretch:normal;line-height:125%;letter-spacing:0px;word-spacing:0px;fill:#000000;fill-opacity:1;stroke:none;font-family:Angelina;-inkscape-font-specification:Angelina"
       d="m 17.448827,1082.9913 c -3.743392,0.1285 -3.669602,4.4646 -3.227023,7.1354 -1.212658,10.1004 -7.822679,18.5888 -13.0445159,27.0663 -0.75619568,1.0815 -1.85653341,2.2434 -1.56805475,0.091 -0.33706,-10.4771 4.11363465,-20.4629 8.81756815,-29.3613 -0.2630294,-3.84 -6.1300962,-5.3612 -7.72676011,-1.523 -4.55290299,9.0957 -7.13376279,19.3376 -7.95388769,29.521 -0.6155074,4.1727 1.551122,10.2022 6.65853245,9.4082 7.73023095,-1.4714 11.27176385,-9.9128 14.58983985,-16.1577 1.23272,-2.616 2.361356,-5.2834 3.454301,-7.9771 2.742182,14.3475 2.33376,31.3764 -7.658538,42.9064 -5.3788961,6.3611 -16.3415165,4.7402 -19.884905,-2.6589 -1.19738,-2.4243 -1.806497,-8.5009 -5.976808,-6.3408 -3.373098,3.1383 -0.130688,8.4964 2.113473,11.4085 5.0671554,7.3267 15.4204877,10.9474 23.520962,6.4539 9.894653,-5.5924 13.649681,-17.5805 15.726129,-28.1115 0.880774,-7.311 1.330194,-15.0889 -0.272709,-22.2711 -2.747308,-5.7993 -0.938243,-12.9621 -4.340582,-18.4076 -0.825652,-0.8382 -2.039082,-1.3326 -3.227022,-1.182 z"
       id="path6683"
       inkscape:connector-curvature="0" />
    <path
       style="font-size:15.52143669px;font-style:normal;font-variant:normal;font-weight:bold;font-stretch:normal;line-height:125%;letter-spacing:0px;word-spacing:0px;fill:#000000;fill-opacity:1;stroke:none;font-family:Angelina;-inkscape-font-specification:Angelina"
       d="m 47.8784,1085.0366 c -8.423431,1.6389 -13.202077,10.0112 -17.519868,16.6751 -4.039995,6.831 -7.887641,16.6367 -2.342266,23.7538 5.800891,6.0434 15.645719,2.5619 21.112047,-2.2727 4.640697,-3.9666 9.012606,-9.2931 9.953838,-15.4307 -0.618797,-2.8551 -5.31597,-3.3331 -5.635947,0 -3.868531,6.4825 -9.662701,12.9227 -17.339615,14.4763 -2.349831,0.5544 -4.982161,-1.0505 -3.97703,-3.7496 0.334212,-2.6472 0.758513,-6.0534 2.113504,-7.8861 7.125748,2.7421 13.923294,-2.8824 16.907841,-9.0222 2.867603,-4.5347 5.487856,-12.0797 0.227398,-15.9078 -1.03691,-0.6385 -2.296825,-0.7997 -3.499712,-0.6361 z m 0.295189,6.613 c -0.884997,5.5426 -4.883212,11.1953 -10.203796,13.1809 -2.535569,0.4865 0.804044,-2.4729 1.227193,-3.4998 3.035355,-3.1692 5.11396,-7.669 8.976603,-9.8852 l 0,0.2045 z"
       id="path6685"
       inkscape:connector-curvature="0" />
    <path
       style="font-size:15.52143669px;font-style:normal;font-variant:normal;font-weight:bold;font-stretch:normal;line-height:125%;letter-spacing:0px;word-spacing:0px;fill:#000000;fill-opacity:1;stroke:none;font-family:Angelina;-inkscape-font-specification:Angelina"
       d="m 75.421842,1084.2184 c -4.941323,0.4069 -8.115942,4.8661 -10.362862,8.7949 1.00789,-3.6044 -3.23244,-7.8208 -6.499537,-5.0223 -3.700809,3.2605 -0.846457,8.9217 -1.212969,13.0839 1.176385,8.2346 -0.893563,16.5477 -0.355146,24.7311 1.140132,4.7892 8.752836,2.5745 7.811695,-1.9991 -0.92433,-9.2224 -0.222704,-19.0266 5.647262,-26.5281 1.854166,-2.4451 3.297653,-5.5115 6.22139,-6.8338 -0.385691,4.1034 6.164263,4.2272 6.045042,0.3622 0.286713,-4.0023 -3.366497,-7.1086 -7.294925,-6.5906 z"
       id="path6687"
       inkscape:connector-curvature="0" />
    <path
       style="fill:#000000;fill-opacity:1;stroke:none"
       d="m -169.26124,677.37553 c -4.75592,1.14086 -5.16067,3.39656 -4.59603,5.24496 0.80725,2.64256 1.66824,3.44005 6.12236,2.32566 4.4541,-1.11439 4.8326,-2.53952 4.23647,-4.88143 -0.47769,-1.87666 -1.00685,-3.83004 -5.7628,-2.68919 z"
       id="path3928"
       inkscape:connector-curvature="0"
       sodipodi:nodetypes="zszsz" />
  </g>
</svg>
