<?xml version="1.0" encoding="UTF-8" standalone="no"?>
<!-- Created with Inkscape (http://www.inkscape.org/) -->

<svg
   xmlns:dc="http://purl.org/dc/elements/1.1/"
   xmlns:cc="http://creativecommons.org/ns#"
   xmlns:rdf="http://www.w3.org/1999/02/22-rdf-syntax-ns#"
   xmlns:svg="http://www.w3.org/2000/svg"
   xmlns="http://www.w3.org/2000/svg"
   xmlns:xlink="http://www.w3.org/1999/xlink"
   xmlns:sodipodi="http://sodipodi.sourceforge.net/DTD/sodipodi-0.dtd"
   xmlns:inkscape="http://www.inkscape.org/namespaces/inkscape"
   width="1414"
   height="1000"
   id="svg2"
   version="1.1"
   inkscape:version="0.48.0 r9654"
   sodipodi:docname="airplug.svg"
   inkscape:export-filename="/home/james/airplug/airplug-branding/airplug.png"
   inkscape:export-xdpi="90"
   inkscape:export-ydpi="90">
  <sodipodi:namedview
     id="base"
     pagecolor="#ffffff"
     bordercolor="#666666"
     borderopacity="1.0"
     inkscape:pageopacity="0.0"
     inkscape:pageshadow="2"
     inkscape:zoom="0.70710678"
     inkscape:cx="622.73927"
     inkscape:cy="670.43419"
     inkscape:document-units="px"
     inkscape:current-layer="layer1"
     showgrid="false"
     showguides="true"
     inkscape:guide-bbox="true"
     inkscape:snap-global="false"
     fit-margin-top="0"
     fit-margin-left="0"
     fit-margin-right="0"
     fit-margin-bottom="0"
     inkscape:window-width="1360"
     inkscape:window-height="720"
     inkscape:window-x="0"
     inkscape:window-y="0"
     inkscape:window-maximized="1">
    <sodipodi:guide
       orientation="1,0"
       position="707,0"
       id="guide6759" />
    <sodipodi:guide
       orientation="1,0"
       position="1414,0"
       id="guide6763" />
    <sodipodi:guide
       orientation="0,1"
       position="0,1000"
       id="guide6765" />
    <sodipodi:guide
       orientation="0,1"
       position="0,500"
       id="guide6767" />
    <sodipodi:guide
       orientation="0,1"
       position="0,0"
       id="guide6782" />
    <sodipodi:guide
       orientation="1,0"
       position="0,0"
       id="guide6784" />
  </sodipodi:namedview>
  <defs
     id="defs4">
    <linearGradient
       id="linearGradient6790">
      <stop
         style="stop-color:#000000;stop-opacity:1;"
         offset="0"
         id="stop6792" />
      <stop
         id="stop6798"
         offset="0.5"
         style="stop-color:#000000;stop-opacity:0;" />
      <stop
         style="stop-color:#000000;stop-opacity:1;"
         offset="1"
         id="stop6794" />
    </linearGradient>
    <linearGradient
       id="linearGradient6771">
      <stop
         style="stop-color:#000000;stop-opacity:0;"
         offset="0"
         id="stop6773" />
      <stop
         style="stop-color:#000000;stop-opacity:1;"
         offset="1"
         id="stop6775" />
    </linearGradient>
    <linearGradient
       id="linearGradient6432">
      <stop
         style="stop-color:#cee3ea;stop-opacity:1;"
         offset="0"
         id="stop6434" />
      <stop
         style="stop-color:#ffffff;stop-opacity:1;"
         offset="1"
         id="stop6436" />
    </linearGradient>
    <radialGradient
       inkscape:collect="always"
       xlink:href="#linearGradient6771"
       id="radialGradient6777"
       cx="961"
       cy="296.5"
       fx="961"
       fy="296.5"
       r="961"
       gradientTransform="matrix(1,0,0,0.61706555,2,413.04005)"
       gradientUnits="userSpaceOnUse" />
  </defs>
  <metadata
     id="metadata7">
    <rdf:RDF>
      <cc:Work
         rdf:about="">
        <dc:format>image/svg+xml</dc:format>
        <dc:type
           rdf:resource="http://purl.org/dc/dcmitype/StillImage" />
        <dc:title />
      </cc:Work>
    </rdf:RDF>
  </metadata>
  <g
     inkscape:label="Layer 1"
     inkscape:groupmode="layer"
     id="layer1"
     transform="translate(831.09448,-154.93554)">
    <g
       id="g6552"
       transform="matrix(5.6551089,0,0,5.6551089,3811.9765,-5310.2539)">
      <path
         style="font-size:12px;font-style:normal;font-variant:normal;font-weight:normal;font-stretch:normal;line-height:125%;letter-spacing:0px;word-spacing:0px;fill:#000000;fill-opacity:1;stroke:none;font-family:Angelina;-inkscape-font-specification:Angelina"
         d="M 407.875 591.84375 C 405.99811 591.82865 403.99782 592.05452 401.84375 592.5 C 372.74855 598.51647 352.91875 661.65764 331.78125 710.3125 C 282.85438 725.41051 222.79889 745.02345 192.34375 735.3125 C 161.88856 725.60155 189.50546 689.58006 198.46875 685.71875 C 207.43204 681.85744 200.37612 668.19004 191.84375 676.1875 C 188.94409 678.90535 186.3647 682.58553 179.3125 690.46875 C 161.93113 709.89801 165.49337 739.00306 188.125 745.90625 C 233.64699 754.98383 284.98451 741.02047 324.375 728.03125 C 314.05273 753.08791 301.20762 767.61748 293.4375 792.25 C 288.08505 809.21872 309.6697 809.43166 313.78125 794 C 320.59469 768.42647 333.37838 740.62457 341.9375 721.40625 C 364.81179 712.81784 397.61432 707.09361 422.46875 705.5 C 424.6838 743.357 440.17821 811.85009 475.9375 783.71875 C 479.24777 781.11457 476.60493 772.06616 471.03125 775.96875 C 446.29309 795.28264 438.37851 728.04122 436.34375 705.25 C 448.83871 706.55407 455.92579 710.12459 452.21875 718.21875 C 449.78264 723.53795 455.65937 725.96449 458.90625 722.65625 C 470.19125 711.15659 464.18989 693.19291 435.5 691.8125 C 434.12687 642.40417 436.02839 592.07018 407.875 591.84375 z M 749.71875 593.90625 C 745.36115 593.85818 741.33871 609.46343 737.625 640.9375 C 732.47365 685.58458 723.65371 806.75182 771.8125 799.4375 C 779.16573 798.32118 783.14483 791.74965 779.1875 788.1875 C 775.23022 784.62535 770.10011 789.95267 766.09375 790.15625 C 737.29285 791.61979 754.58071 643.18451 758.75 609.46875 C 759.51197 603.30694 755.27269 593.96846 749.71875 593.90625 z M 403.0625 606.21875 C 420.43443 605.09056 419.04301 655.97627 421.4375 690.53125 C 395.22138 692.27472 374.97317 697.09248 350.25 704.28125 C 364.51394 667.10965 391.81573 606.94882 403.0625 606.21875 z M 501.34375 615.5625 C 491.4166 616.49017 490.04825 641.82279 507.59375 631.15625 C 512.10506 628.41352 510.20474 618.3944 504.6875 616.125 C 503.48877 615.63189 502.3707 615.46653 501.34375 615.5625 z M 1013.2188 648.9375 C 997.07862 649.17238 973.81347 663.65484 953.65625 689.6875 C 941.82555 704.96667 919.53149 743.93493 921.96875 767.25 C 899.0462 783.30178 900.41832 708.77045 907.40625 677.875 C 909.89388 666.87694 887.17638 659.43619 887.46875 679.25 C 887.97471 713.55446 828.79327 811.45576 825.625 767.5625 C 823.73993 741.44664 841.91841 710.02776 848.65625 683.90625 C 851.48776 672.92912 832.30175 672.7717 831.15625 679.53125 C 825.95694 706.06841 792.00335 791.85957 828.25 792.5625 C 849.37805 792.97193 875.19567 750.07251 886.71875 725.125 C 888.99794 744.95357 895.9191 791.68933 924.875 776.59375 C 926.1145 778.64281 927.74387 780.40368 929.84375 781.8125 C 969.09739 808.01601 1013.7013 709.72651 1017.8438 712.8125 C 1032.6881 723.8722 1029.695 760.42522 1022.5938 796.5625 C 943.95516 795.00056 886.55968 813.97429 935.09375 870.125 C 976.78344 918.35686 1016.6665 867.82325 1034.8438 809.46875 C 1115.534 806.7854 1193.3531 812.77125 1248.375 808.96875 C 1299.3379 805.44675 1337.5004 793.73768 1372.0312 761.65625 C 1376.5744 757.43528 1369.2288 752.87343 1366.6562 755.1875 C 1335.1715 783.51111 1290.6574 796.51069 1248.125 796.96875 C 1202.0558 798.51825 1110.4162 793.43738 1037.0312 795.9375 C 1049.3826 737.0452 1036.2535 694.06403 1019.0625 693.90625 C 1009.4202 693.81577 957.80417 785.14365 938.03125 774.65625 C 918.40616 764.24689 978.98805 659.54779 1014.2812 661.125 C 1021.0357 661.42472 1015.9215 672.829 1015.8125 678.96875 C 1015.6994 687.74604 1032.1425 687.42769 1031.1875 677.53125 C 1030.1822 665.77428 1029.4676 651.50231 1018 649.34375 C 1016.4944 649.06038 1014.8884 648.9132 1013.2188 648.9375 z M 591.21875 650.59375 C 590.17672 650.5764 589.0735 650.66374 587.9375 650.84375 C 565.92431 654.33182 558.42924 667.56417 545.46875 701 C 547.0036 686.06882 548.86349 677.36901 546.125 665.875 C 544.1314 657.5077 528.54787 660.32647 529.3125 669.78125 C 530.9466 689.98469 535.7023 716.48293 530.96875 766.28125 C 529.57143 780.98114 538.82807 782.95551 543.53125 780.03125 C 548.02452 777.23763 551.46443 774.44235 548.3125 750.6875 C 544.34143 720.75897 564.89793 673.56518 591.40625 663.90625 C 595.73241 662.33017 593.6403 672.06485 600.03125 672.5625 C 611.70334 671.9438 606.84921 650.85403 591.21875 650.59375 z M 705.15625 665.125 C 683.43966 665.39783 650.76871 690.64394 638.625 713 C 641.01779 700.68374 641.63596 690.40009 645.21875 676.34375 C 649.08209 661.18693 624.42598 662.5563 624.875 687.46875 C 623.66124 723.25541 598.8805 882.00232 651.125 875.15625 C 659.264 874.0897 660.7283 864.1435 647.375 867.21875 C 626.46778 864.64285 629.71735 782.96707 639.40625 747.84375 C 650.91779 706.11357 715.20627 650.57694 710.84375 692.25 C 707.37434 725.39233 687.08671 761.43407 655.28125 770.8125 C 650.40033 770.91542 650.91665 764.87211 651.6875 760.53125 C 653.55012 747.83779 644.99871 748.26456 642.96875 761.8125 C 640.95587 775.24678 645.63888 782.90625 656.3125 782.90625 C 696.65486 780.11489 723.78341 724.13827 725.625 697.59375 C 727.27736 673.77676 718.18621 664.9613 705.15625 665.125 z M 498.9375 674.34375 C 495.54696 674.35534 491.79334 677.14387 489.75 683.8125 C 478.02311 722.08515 478.13265 792.27236 509.875 790.75 C 521.18494 790.20768 523.66927 779.92303 519.75 778.0625 C 515.37215 775.98481 509.79005 785.02132 506.46875 780.03125 C 491.91318 758.16294 495.16182 713.79304 504.75 688.5 C 508.03912 680.21382 503.8929 674.32681 498.9375 674.34375 z M 786.15625 747.59375 C 781.3025 747.52702 776.71545 749.78021 776.5625 755.875 L 776.5625 755.90625 C 777.1223 765.47356 797.35427 771.21694 797.65625 754.59375 C 797.52064 750.75158 791.65717 747.66937 786.15625 747.59375 z M 1020.25 809.46875 C 1002.2696 873.17468 968.69024 889.29477 945.96875 862.5625 C 904.94727 814.29897 968.44654 811.89423 1020.25 809.46875 z "
         transform="matrix(0.17683125,0,0,0.17683125,-821.04007,966.4163)"
         id="path4198" />
    </g>
    <path
       style="fill:#ffffff;fill-opacity:1;stroke:none"
       d="m -88.365573,164.89376 -2.930559,8.79167 -21.002338,13.18752 -20.02551,24.90976 -13.18752,32.72461 0,34.67831 6.34957,27.35188 28.81716,22.46764 32.23616,2.93056 39.074152,-16.11808 L -4.3561394,287.00044 7.3661775,253.29899 4.4355381,211.2943 -16.566818,176.61599 -42.94186,161.47476 -69.805344,159.03263 z"
       id="path3934"
       inkscape:connector-curvature="0" />
    <path
       style="fill:#000000;fill-opacity:1;stroke:none"
       d="m -59.188812,154.95674 c -10.830554,0.0984 -36.096176,2.91916 -32.982817,15.10993 -25.345851,9.89322 -44.764761,33.82592 -54.913811,58.39207 -20.36369,49.29106 -5.56974,95.88568 42.73953,108.76696 -9.96584,8.67776 -10.47251,21.61021 -2.33126,18.47729 -3.47492,38.40491 -15.09041,80.9202 -42.56684,109.48225 -28.59192,29.72161 -58.19939,65.40286 -58.54019,109.13688 -0.15285,19.61476 18.34731,37.65947 21.67195,51.46012 -8.50292,4.02047 -2.41655,24.13526 1.03612,34.45065 1.56245,0.29879 1.84714,-0.0654 4.48981,-0.43172 2.01684,5.04904 1.79552,11.09919 4.57615,15.54166 0.71431,1.14122 10.64529,-1.98798 10.96549,-3.02199 0.3202,-1.03401 -2.82134,-10.80784 -4.23077,-16.23238 2.04638,-0.52392 4.62527,-0.71846 5.0942,-1.8132 -2.58083,-13.45741 -5.64501,-32.94491 -15.28263,-31.16964 -2.32631,-12.57414 -16.72073,-26.4931 -18.06363,-39.28699 -4.20907,-40.10017 18.65047,-71.2032 44.3981,-98.42925 40.47879,-42.80306 56.009997,-79.36814 56.03626,-129.60004 11.715746,4.52046 4.79912,-9.80158 1.122446,-17.52752 46.69752,-0.0552 85.884589,-25.83055 99.4665247,-53.61868 C 30.606896,229.17489 -4.9574281,154.46388 -59.188812,154.95674 z m 60.517901,93.57805 c -3.1010702,45.07999 -67.061002,90.57774 -107.833579,74.96245 -68.76919,-26.33758 -27.27729,-123.97051 16.836791,-146.86854 3.362663,-1.74544 2.997538,-5.34586 0.518054,-6.56203 2.598929,-0.796 5.051309,-2.71754 7.425451,-3.19466 62.802171,-12.62098 85.3945591,47.62786 83.053283,81.66278 z"
       id="path5920"
       inkscape:connector-curvature="0"
       sodipodi:nodetypes="scsccsscccsscccssccssssscss" />
    <path
       style="font-size:40.14980316px;font-style:normal;font-variant:normal;font-weight:normal;font-stretch:normal;line-height:125%;letter-spacing:0px;word-spacing:0px;fill:#000000;fill-opacity:1;stroke:none;font-family:Garamond Premier Pro;-inkscape-font-specification:Garamond Premier Pro"
       d="m -170.50725,693.68296 c 0.68008,7.98551 0.56064,12.1321 7.74778,10.47459 6.00999,-1.38601 5.15428,-5.72843 1.49739,-12.62383 -0.63107,-1.18993 0.92034,-3.00638 0.0323,-3.94329 -0.8753,-0.92345 -14.13714,1.94099 -11.26151,4.34457"
       id="path4990"
       inkscape:connector-curvature="0"
       sodipodi:nodetypes="sssss" />
    <path
       style="font-size:15.52143669px;font-style:normal;font-variant:normal;font-weight:bold;font-stretch:normal;line-height:125%;letter-spacing:0px;word-spacing:0px;fill:#000000;fill-opacity:1;stroke:none;font-family:Angelina;-inkscape-font-specification:Angelina"
       d="m -381.20357,1082.6735 c -2.53283,0.2043 -7.45312,2.6644 -5.06782,5.6581 1.57197,1.6119 3.88792,0.058 5.45416,0.3847 3.40669,7.2935 1.0251,16.0539 -1.81805,23.2482 -0.59119,2.4018 -2.99762,5.2741 -5.31784,2.8179 -4.83659,-5.166 -6.34589,-12.6521 -7.09033,-19.5208 1.55436,-4.1056 -5.35918,-7.3433 -6.99946,-3.0227 -3.44986,10.0005 -6.40247,20.7548 -13.22637,29.1565 -0.51799,-1.48 0.0833,-5.1182 0.13622,-7.363 0.23817,-6.3183 2.71643,-12.5117 2.86339,-18.7708 -0.32006,-4.0418 -6.22468,-3.9625 -7.09042,-0.2715 -2.56663,7.4059 -2.10875,15.5753 -2.61341,23.3394 0.38288,4.123 1.54794,11.2643 7.06763,10.7489 5.83852,-1.9757 8.07395,-8.7261 10.68462,-13.7171 1.66714,-2.1079 3.34726,-12.6208 5.00032,-7.8133 2.63995,5.88 5.97244,13.875 13.22208,14.8265 6.85443,-0.1125 9.58042,-7.9888 11.74912,-13.2487 3.33374,-7.9643 3.27479,-18.3843 -2.68159,-25.0444 -1.18521,-0.9784 -2.71549,-1.5448 -4.27246,-1.4086 z"
       id="path6661"
       inkscape:connector-curvature="0" />
    <path
       style="font-size:15.52143669px;font-style:normal;font-variant:normal;font-weight:bold;font-stretch:normal;line-height:125%;letter-spacing:0px;word-spacing:0px;fill:#000000;fill-opacity:1;stroke:none;font-family:Angelina;-inkscape-font-specification:Angelina"
       d="m -351.00131,1085.0366 c -8.69675,1.7677 -13.47743,10.406 -17.88507,17.2937 -3.95247,6.8231 -7.58499,16.8756 -1.5453,23.5893 6.36247,5.6658 16.07147,1.6541 21.52113,-3.4537 4.25275,-3.877 8.32168,-8.995 9.09024,-14.7722 -0.68183,-2.8246 -5.26324,-3.2204 -5.61319,0.058 -3.83719,6.4604 -9.65689,12.9722 -17.33961,14.499 -2.45332,0.5808 -4.94446,-1.0652 -3.97698,-3.749 0.29633,-2.6038 0.74349,-6.0941 2.11345,-7.8862 7.06382,2.7506 13.97631,-2.9024 16.88513,-9.0221 2.94227,-4.5235 5.56941,-12.3927 0.0222,-16.0217 -0.99357,-0.5428 -2.14047,-0.6778 -3.27253,-0.5201 z m 0.2952,6.4089 c -0.74329,5.6509 -4.86033,11.2779 -10.15833,13.385 -2.73565,0.475 1.1444,-2.9542 1.62032,-4.0576 2.85334,-2.9444 4.9121,-7.4046 8.53801,-9.3274 z"
       id="path6663"
       inkscape:connector-curvature="0" />
    <path
       style="font-size:15.52143669px;font-style:normal;font-variant:normal;font-weight:bold;font-stretch:normal;line-height:125%;letter-spacing:0px;word-spacing:0px;fill:#000000;fill-opacity:1;stroke:none;font-family:Angelina;-inkscape-font-specification:Angelina"
       d="m -330.73002,1066.5835 c -4.26684,1.5566 -4.62653,7.3892 -6.22686,11.0675 -3.56817,13.5112 -8.09932,27.5045 -6.20402,41.6103 0.28839,2.9864 3.51752,5.0324 5.795,5.0449 -1.67569,4.4326 2.67672,8.4312 7.04496,7.704 9.60034,-0.7523 16.58348,-8.787 22.90736,-15.249 4.11264,-5.0207 9.36079,-11.6993 6.79495,-18.5662 -3.73309,-6.4277 -12.68428,-5.3091 -18.22595,-2.1139 -7.24034,3.9765 -13.4223,10.5359 -18.02137,16.8396 -0.0838,-14.7499 5.7492,-28.6384 10.81737,-42.2012 0.12848,-2.3782 -2.57359,-4.0988 -4.68144,-4.136 z m 21.72567,33.0201 c 2.91442,-0.6 2.94863,2.6386 1.81805,4.4087 -4.43709,8.1665 -11.50993,15.0205 -19.29405,19.9303 -1.31328,0.674 -4.261,2.1477 -5.06782,1.1592 2.04031,-1.619 2.63758,-6.1403 -0.99991,-5.8179 5.48594,-7.6418 11.81474,-15.944 20.90757,-19.2942 0.85762,-0.2659 1.7387,-0.3732 2.63616,-0.3845 z"
       id="path6665"
       inkscape:connector-curvature="0" />
    <path
       style="font-size:15.52143669px;font-style:normal;font-variant:normal;font-weight:bold;font-stretch:normal;line-height:125%;letter-spacing:0px;word-spacing:0px;fill:#000000;fill-opacity:1;stroke:none;font-family:Angelina;-inkscape-font-specification:Angelina"
       d="m -245.50904,1084.9004 c -8.40743,1.7907 -14.10545,9.2533 -19.49389,15.4111 -5.11463,7.3517 -11.63056,15.5278 -10.98113,24.9945 0.55986,4.5813 6.16322,6.0098 9.70384,3.6815 6.61754,-3.3151 11.83765,-9.1471 16.5669,-14.4534 -0.16689,5.0829 3.3911,11.141 9.15846,10.3179 3.96656,-0.066 8.26681,-6.1782 4.54513,-9.0682 -2.53378,-0.9628 -4.36625,1.3632 -5.40872,3.0687 -2.2819,-0.9891 -1.0954,-5.1208 -1.0226,-7.1362 0.14644,-4.7641 2.92581,-9.6009 1.88619,-14.2944 -0.39757,-1.3985 1.85787,-3.0657 1.3181,-4.9766 0.42923,-3.9139 -1.82106,-8.0556 -6.27228,-7.5449 z m -0.8863,6.8171 c -0.69723,1.6672 -0.8482,3.6454 -0.7954,5.2045 -1.22396,4.0172 -2.6354,8.1477 -5.90925,11.1182 -5.05334,5.3981 -9.11823,12.7614 -16.15732,15.7436 -1.3331,-0.2322 0.20998,-2.9266 0.43205,-3.8638 5.34771,-10.1485 12.43716,-19.7223 21.04396,-27.3841 0.27326,-0.1195 1.25511,-1.0525 1.38624,-0.8184 z"
       id="path6667"
       inkscape:connector-curvature="0" />
    <path
       style="font-size:15.52143669px;font-style:normal;font-variant:normal;font-weight:bold;font-stretch:normal;line-height:125%;letter-spacing:0px;word-spacing:0px;fill:#000000;fill-opacity:1;stroke:none;font-family:Angelina;-inkscape-font-specification:Angelina"
       d="m -213.37505,1088.1271 c -4.93109,1.015 -3.7045,7.0836 -5.1133,10.5904 -3.44119,8.3378 -7.64508,17.0246 -14.4989,23.0434 -1.06904,0 -0.43884,-2.8949 -0.49993,-3.9083 0.95845,-8.6412 5.00671,-16.9416 7.27222,-25.2486 -0.56552,-3.2197 -5.93733,-4.6448 -7.22674,-1.136 -3.77733,8.2833 -5.45729,17.5003 -6.81766,26.4751 -0.23071,4.1819 1.00414,10.8708 6.45405,10.5224 8.73291,-0.9336 12.76223,-10.4557 16.20336,-17.3853 0.65066,5.6803 3.13062,13.8863 10.18105,13.4985 3.26024,-0.3279 8.42493,-3.9416 5.72687,-7.4992 -2.09662,-3.5966 -3.9791,2.0653 -6.49953,1.2955 -3.4051,-4.8809 -2.38866,-11.7535 -2.31796,-17.5213 -0.25833,-3.8966 3.60052,-9.3822 -0.38626,-12.2947 -0.74296,-0.3616 -1.64341,-0.5258 -2.47711,-0.4297 z"
       id="path6669"
       inkscape:connector-curvature="0" />
    <path
       style="font-size:15.52143669px;font-style:normal;font-variant:normal;font-weight:bold;font-stretch:normal;line-height:125%;letter-spacing:0px;word-spacing:0px;fill:#000000;fill-opacity:1;stroke:none;font-family:Angelina;-inkscape-font-specification:Angelina"
       d="m -167.6966,1064.4474 c -4.132,1.381 -4.06207,6.9274 -5.13696,10.4404 -0.91977,4.4889 -1.57293,9.5424 -2.63518,13.6939 -6.89269,-2.8206 -13.62181,3.1098 -17.8396,7.9087 -6.4443,7.7211 -12.0825,16.7114 -14.15801,26.6572 -1.11216,4.3908 2.82742,8.4502 7.22671,7.545 7.80528,-1.0942 12.9285,-8.1572 18.04409,-13.4535 1.42649,-0.8774 4.3582,-6.6505 4.63061,-4.5229 0.28842,5.5707 0.57752,13.6275 6.93674,15.5897 3.63755,1.2624 9.09068,-2.9254 5.9086,-6.5675 -1.08962,-2.9839 -4.50754,2.8211 -5.06778,-0.7274 -2.06697,-11.4708 -0.0707,-23.6069 1.99986,-35.0657 0.83875,-6.1504 3.65086,-12.1041 4.36329,-18.2031 -0.45635,-1.8051 -2.40054,-3.3772 -4.27237,-3.2948 z m -11.15826,29.5654 c 3.13517,1.7196 1.55085,6.7794 0,9.2947 -6.00408,7.7964 -12.7022,15.5902 -21.29391,20.3853 -2.30063,1.1847 -0.34157,-2.653 -0.11355,-3.6131 4.43369,-9.1807 10.06195,-18.2965 17.99866,-24.7711 1.02677,-0.6922 2.14387,-1.2969 3.40886,-1.2958 z"
       id="path6671"
       inkscape:connector-curvature="0" />
    <path
       style="font-size:15.52143669px;font-style:normal;font-variant:normal;font-weight:bold;font-stretch:normal;line-height:125%;letter-spacing:0px;word-spacing:0px;fill:#000000;fill-opacity:1;stroke:none;font-family:Angelina;-inkscape-font-specification:Angelina"
       d="m -156.87919,1073.5369 c -4.41753,0.4581 -5.02155,7.4098 -0.56812,8.3859 6.14275,1.4782 6.61706,-9.0417 0.56812,-8.3859 z m -0.45468,16.954 c -4.72452,1.4261 -4.72877,7.7631 -5.68142,11.7944 -1.59276,8.5905 -1.47389,18.9689 4.77236,25.7256 3.09288,3.3668 10.76739,1.2581 9.95383,-3.75 -0.80709,-2.9226 -3.57203,-2.3431 -5.22691,-0.5486 -3.01749,-2.0007 -2.84135,-6.711 -3.13607,-10.0214 -0.53498,-6.5187 1.21228,-12.7912 3.24971,-18.885 0.34496,-2.3969 -1.38103,-4.6787 -3.9315,-4.3177 z"
       id="path6673"
       inkscape:connector-curvature="0" />
    <path
       style="font-size:15.52143669px;font-style:normal;font-variant:normal;font-weight:bold;font-stretch:normal;line-height:125%;letter-spacing:0px;word-spacing:0px;fill:#000000;fill-opacity:1;stroke:none;font-family:Angelina;-inkscape-font-specification:Angelina"
       d="m -129.51759,1086.6725 c -3.07763,0.4637 -5.95809,2.3712 -8.0903,4.2045 -5.22555,0.3282 -6.83609,6.865 -8.70389,10.7492 -2.43374,7.35 -5.58483,16.7772 -0.47728,23.7481 4.54691,5.8967 13.49313,3.0935 17.476,-2.0905 6.1635,-7.8583 12.19928,-18.0545 9.79468,-28.4977 -0.85274,-4.8121 -4.84277,-8.8667 -9.99926,-8.1136 z m 1.11354,5.8861 c 2.86982,0.9675 2.1443,5.2472 2.20442,7.7043 -1.47003,7.5983 -5.02789,15.3735 -10.70376,20.6343 -1.64188,1.7181 -5.54388,2.3724 -5.63599,-0.9997 -1.83993,-9.686 4.3456,-18.4306 9.86294,-25.5436 1.24341,-0.9103 2.65058,-1.8832 4.27239,-1.7953 z"
       id="path6675"
       inkscape:connector-curvature="0" />
    <path
       style="font-size:15.52143669px;font-style:normal;font-variant:normal;font-weight:bold;font-stretch:normal;line-height:125%;letter-spacing:0px;word-spacing:0px;fill:#000000;fill-opacity:1;stroke:none;font-family:Angelina;-inkscape-font-specification:Angelina"
       d="m -85.316283,1086.6499 c -5.713519,1.2572 -4.800675,8.9605 -5.486763,13.3189 -0.842735,14.4241 -3.222037,29.1331 -0.921841,43.495 0.789038,4.9291 4.769638,11.8883 10.658302,9.9996 3.26474,-0.7517 3.154918,-4.4557 2.840649,-7.1135 -2.080832,0.5927 -5.448102,3.4689 -6.204077,-0.2045 -2.218691,-7.4918 -1.374933,-17.7943 -0.545158,-24.0891 2.366031,5.4476 10.092901,3.6871 13.72625,0.4976 7.798965,-6.7143 14.544819,-16.7736 13.521742,-27.589 -0.139525,-4.62 -4.286834,-8.7173 -9.067507,-7.7038 -6.398181,0.6747 -11.642217,5.123 -15.612515,9.863 0.599678,-3.4151 3.54403,-10.9256 -2.908872,-10.4766 z m 19.294014,6.5908 c 2.419798,0.8062 1.092754,4.8847 0.931752,6.7723 -2.40109,6.9392 -5.744264,14.7117 -12.430884,18.4758 -1.712816,0.8958 -2.919144,0.4636 -2.022591,-1.6819 1.646911,-4.1728 -4.10579,-1.8417 -4.204257,-3.8409 2.67725,-7.4161 8.024377,-14.1978 14.521637,-18.7025 0.999033,-0.5318 2.068133,-0.9723 3.204343,-1.0228 z"
       id="path6677"
       inkscape:connector-curvature="0" />
    <path
       style="font-size:15.52143669px;font-style:normal;font-variant:normal;font-weight:bold;font-stretch:normal;line-height:125%;letter-spacing:0px;word-spacing:0px;fill:#000000;fill-opacity:1;stroke:none;font-family:Angelina;-inkscape-font-specification:Angelina"
       d="m -52.091453,1065.5837 c -3.635615,2.5774 -2.89564,8.1833 -3.999689,12.0439 -1.489681,13.5577 -3.189867,27.6164 -0.886331,41.1337 1.116327,5.6881 5.115485,13.1527 11.976378,11.8401 3.349504,-0.4918 5.784339,-4.7406 2.156688,-6.9966 -1.488848,-2.7097 -1.083354,0.6753 -3.156623,1.2247 -3.884541,-0.2431 -4.058322,-5.7497 -4.613321,-8.6134 -1.140473,-15.6946 0.389654,-31.5346 3.15889,-46.9285 0.03952,-2.4136 -2.284185,-4.3473 -4.635992,-3.7039 z"
       id="path6679"
       inkscape:connector-curvature="0" />
    <path
       style="font-size:15.52143669px;font-style:normal;font-variant:normal;font-weight:bold;font-stretch:normal;line-height:125%;letter-spacing:0px;word-spacing:0px;fill:#000000;fill-opacity:1;stroke:none;font-family:Angelina;-inkscape-font-specification:Angelina"
       d="m -13.6398,1084.9004 c -8.206895,1.7025 -13.764398,8.8924 -19.044025,14.8395 -5.274741,7.3994 -11.776144,15.5533 -11.499162,25.1347 0.22463,4.3542 5.394244,6.5461 9.022096,4.4313 7.004841,-3.1386 12.370476,-9.3232 17.294134,-14.7266 -0.04524,4.9128 3.058618,10.7166 8.681153,10.3179 4.0902317,0.108 8.39672717,-5.3482 5.4769315,-8.8401 -2.4142708,-1.4828 -4.8727795,0.7702 -5.7496109,2.7726 -2.0599676,-0.4071 -1.3891276,-4.0913 -1.2953456,-5.7722 0.156097,-5.1967 2.8734115,-10.4789 2.1134641,-15.5673 -0.7172443,-1.3084 1.6545241,-2.6878 1.227223,-4.4087 0.6139626,-4.0524 -1.4675215,-8.7191 -6.2268581,-8.1811 z m -0.886321,6.8171 c -0.579234,1.666 -1.07869,3.553 -0.727185,5.1365 -1.359706,3.7115 -2.342688,7.8053 -5.517357,10.6233 -5.273709,5.5339 -9.402731,13.3053 -16.73096,16.3289 -1.192214,-0.786 0.620202,-3.6425 0.977204,-4.8405 5.568577,-9.8928 12.369573,-19.3345 20.998373,-26.7252 0.179871,0 1.041946,-0.8753 0.999925,-0.5201 z"
       id="path6681"
       inkscape:connector-curvature="0" />
    <path
       style="font-size:15.52143669px;font-style:normal;font-variant:normal;font-weight:bold;font-stretch:normal;line-height:125%;letter-spacing:0px;word-spacing:0px;fill:#000000;fill-opacity:1;stroke:none;font-family:Angelina;-inkscape-font-specification:Angelina"
       d="m 17.448827,1082.9913 c -3.743392,0.1285 -3.669602,4.4646 -3.227023,7.1354 -1.212658,10.1004 -7.822679,18.5888 -13.0445159,27.0663 -0.75619568,1.0815 -1.85653341,2.2434 -1.56805475,0.091 -0.33706,-10.4771 4.11363465,-20.4629 8.81756815,-29.3613 -0.2630294,-3.84 -6.1300962,-5.3612 -7.72676011,-1.523 -4.55290299,9.0957 -7.13376279,19.3376 -7.95388769,29.521 -0.6155074,4.1727 1.551122,10.2022 6.65853245,9.4082 7.73023095,-1.4714 11.27176385,-9.9128 14.58983985,-16.1577 1.23272,-2.616 2.361356,-5.2834 3.454301,-7.9771 2.742182,14.3475 2.33376,31.3764 -7.658538,42.9064 -5.3788961,6.3611 -16.3415165,4.7402 -19.884905,-2.6589 -1.19738,-2.4243 -1.806497,-8.5009 -5.976808,-6.3408 -3.373098,3.1383 -0.130688,8.4964 2.113473,11.4085 5.0671554,7.3267 15.4204877,10.9474 23.520962,6.4539 9.894653,-5.5924 13.649681,-17.5805 15.726129,-28.1115 0.880774,-7.311 1.330194,-15.0889 -0.272709,-22.2711 -2.747308,-5.7993 -0.938243,-12.9621 -4.340582,-18.4076 -0.825652,-0.8382 -2.039082,-1.3326 -3.227022,-1.182 z"
       id="path6683"
       inkscape:connector-curvature="0" />
    <path
       style="font-size:15.52143669px;font-style:normal;font-variant:normal;font-weight:bold;font-stretch:normal;line-height:125%;letter-spacing:0px;word-spacing:0px;fill:#000000;fill-opacity:1;stroke:none;font-family:Angelina;-inkscape-font-specification:Angelina"
       d="m 47.8784,1085.0366 c -8.423431,1.6389 -13.202077,10.0112 -17.519868,16.6751 -4.039995,6.831 -7.887641,16.6367 -2.342266,23.7538 5.800891,6.0434 15.645719,2.5619 21.112047,-2.2727 4.640697,-3.9666 9.012606,-9.2931 9.953838,-15.4307 -0.618797,-2.8551 -5.31597,-3.3331 -5.635947,0 -3.868531,6.4825 -9.662701,12.9227 -17.339615,14.4763 -2.349831,0.5544 -4.982161,-1.0505 -3.97703,-3.7496 0.334212,-2.6472 0.758513,-6.0534 2.113504,-7.8861 7.125748,2.7421 13.923294,-2.8824 16.907841,-9.0222 2.867603,-4.5347 5.487856,-12.0797 0.227398,-15.9078 -1.03691,-0.6385 -2.296825,-0.7997 -3.499712,-0.6361 z m 0.295189,6.613 c -0.884997,5.5426 -4.883212,11.1953 -10.203796,13.1809 -2.535569,0.4865 0.804044,-2.4729 1.227193,-3.4998 3.035355,-3.1692 5.11396,-7.669 8.976603,-9.8852 l 0,0.2045 z"
       id="path6685"
       inkscape:connector-curvature="0" />
    <path
       style="font-size:15.52143669px;font-style:normal;font-variant:normal;font-weight:bold;font-stretch:normal;line-height:125%;letter-spacing:0px;word-spacing:0px;fill:#000000;fill-opacity:1;stroke:none;font-family:Angelina;-inkscape-font-specification:Angelina"
       d="m 75.421842,1084.2184 c -4.941323,0.4069 -8.115942,4.8661 -10.362862,8.7949 1.00789,-3.6044 -3.23244,-7.8208 -6.499537,-5.0223 -3.700809,3.2605 -0.846457,8.9217 -1.212969,13.0839 1.176385,8.2346 -0.893563,16.5477 -0.355146,24.7311 1.140132,4.7892 8.752836,2.5745 7.811695,-1.9991 -0.92433,-9.2224 -0.222704,-19.0266 5.647262,-26.5281 1.854166,-2.4451 3.297653,-5.5115 6.22139,-6.8338 -0.385691,4.1034 6.164263,4.2272 6.045042,0.3622 0.286713,-4.0023 -3.366497,-7.1086 -7.294925,-6.5906 z"
       id="path6687"
       inkscape:connector-curvature="0" />
    <path
       style="fill:#000000;fill-opacity:1;stroke:none"
       d="m -169.26124,677.37553 c -4.75592,1.14086 -5.16067,3.39656 -4.59603,5.24496 0.80725,2.64256 1.66824,3.44005 6.12236,2.32566 4.4541,-1.11439 4.8326,-2.53952 4.23647,-4.88143 -0.47769,-1.87666 -1.00685,-3.83004 -5.7628,-2.68919 z"
       id="path3928"
       inkscape:connector-curvature="0"
       sodipodi:nodetypes="zszsz" />
  </g>
</svg>
