<?xml version="1.0" encoding="UTF-8" standalone="no"?>
<!-- Created with Inkscape (http://www.inkscape.org/) -->

<svg
   xmlns:dc="http://purl.org/dc/elements/1.1/"
   xmlns:cc="http://creativecommons.org/ns#"
   xmlns:rdf="http://www.w3.org/1999/02/22-rdf-syntax-ns#"
   xmlns:svg="http://www.w3.org/2000/svg"
   xmlns="http://www.w3.org/2000/svg"
   xmlns:sodipodi="http://sodipodi.sourceforge.net/DTD/sodipodi-0.dtd"
   xmlns:inkscape="http://www.inkscape.org/namespaces/inkscape"
   width="1414"
   height="1000"
   id="svg2"
   version="1.1"
   inkscape:version="0.48.0 r9654"
   sodipodi:docname="airplug.svg"
   inkscape:export-filename="/home/james/airplug/airplug.github.com/airplug-logo.png"
   inkscape:export-xdpi="32.588402"
   inkscape:export-ydpi="32.588402">
  <sodipodi:namedview
     id="base"
     pagecolor="#ffffff"
     bordercolor="#666666"
     borderopacity="1.0"
     inkscape:pageopacity="0.0"
     inkscape:pageshadow="2"
     inkscape:zoom="0.35355339"
     inkscape:cx="1038.5349"
     inkscape:cy="423.07415"
     inkscape:document-units="px"
     inkscape:current-layer="layer1"
     showgrid="false"
     showguides="true"
     inkscape:guide-bbox="true"
     inkscape:snap-global="false"
     fit-margin-top="0"
     fit-margin-left="0"
     fit-margin-right="0"
     fit-margin-bottom="0"
     inkscape:window-width="1360"
     inkscape:window-height="720"
     inkscape:window-x="0"
     inkscape:window-y="0"
     inkscape:window-maximized="1">
    <sodipodi:guide
       orientation="1,0"
       position="707,0"
       id="guide6759" />
    <sodipodi:guide
       orientation="1,0"
       position="1414,0"
       id="guide6763" />
    <sodipodi:guide
       orientation="0,1"
       position="0,1000"
       id="guide6765" />
    <sodipodi:guide
       orientation="0,1"
       position="0,500"
       id="guide6767" />
    <sodipodi:guide
       orientation="0,1"
       position="0,0"
       id="guide6782" />
    <sodipodi:guide
       orientation="1,0"
       position="0,0"
       id="guide6784" />
  </sodipodi:namedview>
  <defs
     id="defs4" />
  <metadata
     id="metadata7">
    <rdf:RDF>
      <cc:Work
         rdf:about="">
        <dc:format>image/svg+xml</dc:format>
        <dc:type
           rdf:resource="http://purl.org/dc/dcmitype/StillImage" />
        <dc:title>Airplug: web audio player</dc:title>
      </cc:Work>
    </rdf:RDF>
  </metadata>
  <g
     inkscape:label="Layer 1"
     inkscape:groupmode="layer"
     id="layer1"
     transform="translate(831.09448,-154.93554)">
    <g
       id="g3059"
       transform="translate(-36,0)">
      <path
         inkscape:connector-curvature="0"
         id="path3934"
         d="m -88.365573,164.89376 -2.930559,8.79167 -21.002338,13.18752 -20.02551,24.90976 -13.18752,32.72461 0,34.67831 6.34957,27.35188 28.81716,22.46764 32.23616,2.93056 39.074152,-16.11808 L -4.3561394,287.00044 7.3661775,253.29899 4.4355381,211.2943 -16.566818,176.61599 -42.94186,161.47476 -69.805344,159.03263 z"
         style="fill:#ffffff;fill-opacity:1;stroke:none" />
      <path
         id="path3046"
         transform="translate(-831.09448,154.93554)"
         d="M 771.90625,0.03125 C 761.0757,0.12965 735.82414,2.93423 738.9375,15.125 713.59165,25.01822 694.14905,48.9651 684,73.53125 c -20.36369,49.29106 -5.55927,95.86872 42.75,108.75 -9.96584,8.67776 -10.485,21.63292 -2.34375,18.5 -3.47492,38.40491 -15.08607,80.9067 -42.5625,109.46875 -28.59192,29.72161 -58.19045,65.39098 -58.53125,109.125 -0.15285,19.61476 18.33161,37.6681 21.65625,51.46875 -8.50292,4.02047 -2.39017,24.15336 1.0625,34.46875 1.56245,0.29879 1.82608,-0.0712 4.46875,-0.4375 2.01684,5.04904 1.81312,11.08878 4.59375,15.53125 0.71431,1.14122 10.64855,-1.99724 10.96875,-3.03125 0.3202,-1.03401 -2.84057,-10.79421 -4.25,-16.21875 2.04638,-0.52392 4.62482,-0.71776 5.09375,-1.8125 -2.58083,-13.45741 -5.64363,-32.96277 -15.28125,-31.1875 -2.32631,-12.57414 -16.7196,-26.48736 -18.0625,-39.28125 -4.20907,-40.10017 18.65862,-71.1802 44.40625,-98.40625 40.47879,-42.80306 56.00499,-79.3931 56.03125,-129.625 11.71575,4.52046 4.80167,-9.80531 1.125,-17.53125 46.69752,-0.0552 85.88681,-25.80562 99.46875,-53.59375 C 861.70483,74.2505 826.13763,-0.46161 771.90625,0.03125 z M 766,10.21875 c 50.20362,0.1552 68.55928,52.53085 66.4375,83.375 -3.10107,45.07999 -67.07117,90.58404 -107.84375,74.96875 -68.76919,-26.33758 -27.27033,-123.97697 16.84375,-146.875 3.36266,-1.74544 2.97948,-5.34633 0.5,-6.5625 2.59893,-0.796 5.06336,-2.71038 7.4375,-3.1875 5.8877,-1.18322 11.43152,-1.73481 16.625,-1.71875 z"
         style="font-size:12px;font-style:normal;font-variant:normal;font-weight:normal;font-stretch:normal;line-height:125%;letter-spacing:0px;word-spacing:0px;fill:#000000;fill-opacity:1;stroke:none;font-family:Angelina;-inkscape-font-specification:Angelina"
         inkscape:connector-curvature="0" />
      <path
         id="path3042"
         d="m -167.00073,677.02929 c -0.62207,0.0173 -1.35826,0.12984 -2.25,0.34375 -4.75592,1.14086 -5.15839,3.4016 -4.59375,5.25 0.80725,2.64256 1.67088,3.42689 6.125,2.3125 4.4541,-1.11439 4.81488,-2.53309 4.21875,-4.875 -0.38812,-1.52479 -0.80437,-3.10599 -3.5,-3.03125 z"
         style="font-size:12px;font-style:normal;font-variant:normal;font-weight:normal;font-stretch:normal;line-height:125%;letter-spacing:0px;word-spacing:0px;fill:#000000;fill-opacity:1;stroke:none;font-family:Angelina;-inkscape-font-specification:Angelina"
         inkscape:connector-curvature="0" />
      <path
         id="path3040"
         d="m -162.09448,687.40429 c -3.08547,-0.0375 -12.92243,2.42812 -10.40625,4.53125 l 2,1.75 c 0.68008,7.98551 0.56286,12.12626 7.75,10.46875 6.00999,-1.38601 5.15689,-5.7296 1.5,-12.625 -0.63107,-1.18993 0.91929,-3.00059 0.0312,-3.9375 -0.10941,-0.11543 -0.43422,-0.18214 -0.875,-0.1875 z"
         style="font-size:12px;font-style:normal;font-variant:normal;font-weight:normal;font-stretch:normal;line-height:125%;letter-spacing:0px;word-spacing:0px;fill:#000000;fill-opacity:1;stroke:none;font-family:Angelina;-inkscape-font-specification:Angelina"
         inkscape:connector-curvature="0" />
    </g>
    <g
       id="g3065"
       transform="translate(12,0)">
      <path
         id="path3038"
         d="m -421.21948,746.77929 c -1.87689,-0.0151 -3.87718,0.21077 -6.03125,0.65625 -29.0952,6.01647 -48.925,69.15764 -70.0625,117.8125 -48.92687,15.09801 -108.98236,34.71095 -139.4375,25 -30.45519,-9.71095 -2.83829,-45.73244 6.125,-49.59375 8.96329,-3.86131 1.90737,-17.52871 -6.625,-9.53125 -2.89966,2.71785 -5.47905,6.39803 -12.53125,14.28125 -17.38137,19.42926 -13.81913,48.53431 8.8125,55.4375 45.52199,9.07758 96.85951,-4.88578 136.25,-17.875 -10.32227,25.05666 -23.16738,39.58623 -30.9375,64.21875 -5.35245,16.96872 16.2322,17.18166 20.34375,1.75 6.81344,-25.57353 19.59713,-53.37543 28.15625,-72.59375 22.87429,-8.58841 55.67682,-14.31264 80.53125,-15.90625 2.21505,37.857 17.70946,106.35009 53.46875,78.21875 3.31027,-2.60418 0.66743,-11.65259 -4.90625,-7.75 -24.73816,19.31389 -32.65274,-47.92753 -34.6875,-70.71875 12.49496,1.30407 19.58204,4.87459 15.875,12.96875 -2.43611,5.3192 3.44062,7.74574 6.6875,4.4375 11.285,-11.49966 5.28364,-29.46334 -23.40625,-30.84375 -1.37313,-49.40833 0.52839,-99.74232 -27.625,-99.96875 z m -4.8125,14.375 c 17.37193,-1.12819 15.98051,49.75752 18.375,84.3125 -26.21612,1.74347 -46.46433,6.56123 -71.1875,13.75 14.26394,-37.1716 41.56573,-97.33243 52.8125,-98.0625 z"
         style="font-size:12px;font-style:normal;font-variant:normal;font-weight:normal;font-stretch:normal;line-height:125%;letter-spacing:0px;word-spacing:0px;fill:#000000;fill-opacity:1;stroke:none;font-family:Angelina;-inkscape-font-specification:Angelina"
         inkscape:connector-curvature="0" />
      <path
         id="path3036"
         d="m -81.37573,748.84179 c -4.3576,-0.0481 -8.38004,15.55718 -12.09375,47.03125 -5.15135,44.64708 -13.97129,165.81432 34.1875,158.5 7.35323,-1.11632 11.33233,-7.68785 7.375,-11.25 -3.95728,-3.56215 -9.08739,1.76517 -13.09375,1.96875 -28.8009,1.46354 -11.51304,-146.97174 -7.34375,-180.6875 0.76197,-6.16181 -3.47731,-15.50029 -9.03125,-15.5625 z"
         style="font-size:12px;font-style:normal;font-variant:normal;font-weight:normal;font-stretch:normal;line-height:125%;letter-spacing:0px;word-spacing:0px;fill:#000000;fill-opacity:1;stroke:none;font-family:Angelina;-inkscape-font-specification:Angelina"
         inkscape:connector-curvature="0" />
      <path
         id="path3032"
         d="m -326.96948,770.46679 c -0.26796,-0.01 -0.52451,0.007 -0.78125,0.0312 -9.92715,0.92767 -11.2955,26.26029 6.25,15.59375 4.51131,-2.74273 2.61099,-12.76185 -2.90625,-15.03125 -0.89905,-0.36983 -1.75861,-0.56462 -2.5625,-0.59375 z"
         style="font-size:12px;font-style:normal;font-variant:normal;font-weight:normal;font-stretch:normal;line-height:125%;letter-spacing:0px;word-spacing:0px;fill:#000000;fill-opacity:1;stroke:none;font-family:Angelina;-inkscape-font-specification:Angelina"
         inkscape:connector-curvature="0" />
      <path
         id="path3030"
         d="m 182.12432,799.87304 c -16.14028,0.23488 -39.40533,14.71734 -59.56255,40.75 -11.8307,15.27917 -34.12476,54.24743 -31.6875,77.5625 -22.92255,16.05178 -21.55043,-58.47955 -14.5625,-89.375 2.48763,-10.99806 -20.22987,-18.43881 -19.9375,1.375 0.50596,34.30446 -58.67548,132.20576 -61.84375,88.3125 -1.88507,-26.11586 16.29341,-57.53474 23.03125,-83.65625 2.83151,-10.97713 -16.3545,-11.13455 -17.5,-4.375 -5.19931,26.53716 -39.1529,112.32832 -2.90625,113.03125 21.12805,0.40943 46.94567,-42.48999 58.46875,-67.4375 2.27919,19.82857 9.20035,66.56433 38.15625,51.46875 1.2395,2.04906 2.86887,3.80993 4.96875,5.21875 39.25364,26.20351 83.85735,-72.08599 88.00005,-69 14.8442,11.0597 11.8512,47.61272 4.75,83.75 -77.93163,1.97359 -136.03412,17.41185 -87.50005,73.56246 41.68969,48.2319 81.57275,-2.3017 99.75005,-60.65621 53.113,-1.97624 104.6514,2.59539 145.5312,-0.5 50.9386,-3.85705 89.1255,-15.23107 123.6562,-47.3125 4.5433,-4.22097 -2.8022,-8.78282 -5.375,-6.46875 -31.4845,28.32361 -75.9988,41.32319 -118.5312,41.78125 -46.0692,1.5495 -93.3968,-2.11716 -143.0938,-1.03125 12.3516,-58.8923 -0.7777,-101.87347 -17.9687,-102.03125 -9.6423,-0.0905 -61.25833,91.2374 -81.03125,80.75 -19.62509,-10.40936 40.9569,-115.10846 76.24995,-113.53125 6.7546,0.29972 1.6403,11.704 1.5313,17.84375 -0.1131,8.77729 16.33,8.45894 15.375,-1.4375 -1.0053,-11.75697 -1.7199,-26.02894 -13.1875,-28.1875 -1.5056,-0.28337 -3.1117,-0.43055 -4.7812,-0.40625 z m 7.0312,160.53125 c -17.9804,63.70591 -51.55976,79.82601 -74.28125,53.09371 -41.02148,-48.26343 22.47779,-50.66823 74.28125,-53.09371 z"
         style="font-size:12px;font-style:normal;font-variant:normal;font-weight:normal;font-stretch:normal;line-height:125%;letter-spacing:0px;word-spacing:0px;fill:#000000;fill-opacity:1;stroke:none;font-family:Angelina;-inkscape-font-specification:Angelina"
         inkscape:connector-curvature="0"
         sodipodi:nodetypes="sscsssscccccccscsscccccccccscsc" />
      <path
         id="path3028"
         d="m -237.87573,805.52929 c -1.04203,-0.0173 -2.14525,0.07 -3.28125,0.25 -22.01319,3.48807 -29.50826,16.72042 -42.46875,50.15625 1.53485,-14.93118 3.39474,-23.63099 0.65625,-35.125 -1.9936,-8.3673 -17.57713,-5.54853 -16.8125,3.90625 1.6341,20.20344 6.3898,46.70168 1.65625,96.5 -1.39732,14.69989 7.85932,16.67426 12.5625,13.75 4.49327,-2.79362 7.93318,-5.5889 4.78125,-29.34375 -3.97107,-29.92853 16.58543,-77.12232 43.09375,-86.78125 4.32616,-1.57608 2.23405,8.1586 8.625,8.65625 11.67209,-0.6187 6.81796,-21.70847 -8.8125,-21.96875 z"
         style="font-size:12px;font-style:normal;font-variant:normal;font-weight:normal;font-stretch:normal;line-height:125%;letter-spacing:0px;word-spacing:0px;fill:#000000;fill-opacity:1;stroke:none;font-family:Angelina;-inkscape-font-specification:Angelina"
         inkscape:connector-curvature="0" />
      <path
         id="path3026"
         d="m -133.93823,826.06054 c -21.71659,0.27283 -54.38754,25.51894 -66.53125,47.875 2.39279,-12.31626 3.01096,-22.59991 6.59375,-36.65625 3.86334,-15.15682 -20.79277,-13.78745 -20.34375,11.125 -1.21376,35.78666 -25.9945,194.53351 26.25,187.68751 8.139,-1.0666 9.6033,-11.0128 -3.75,-7.9375 -20.90722,-2.5759 -17.65765,-84.25169 -7.96875,-119.37501 11.51154,-41.73018 75.80002,-97.26681 71.4375,-55.59375 -3.46941,33.14233 -23.75704,69.18407 -55.5625,78.5625 -4.88092,0.10292 -4.3646,-5.94039 -3.59375,-10.28125 1.86262,-12.69346 -6.68879,-12.26669 -8.71875,1.28125 -2.01288,13.43428 2.67013,21.09375 13.34375,21.09375 40.34236,-2.79136 67.47091,-58.76798 69.3125,-85.3125 1.65236,-23.81699 -7.43879,-32.63245 -20.46875,-32.46875 z"
         style="font-size:12px;font-style:normal;font-variant:normal;font-weight:normal;font-stretch:normal;line-height:125%;letter-spacing:0px;word-spacing:0px;fill:#000000;fill-opacity:1;stroke:none;font-family:Angelina;-inkscape-font-specification:Angelina"
         inkscape:connector-curvature="0" />
      <path
         id="path3024"
         d="m -330.15698,829.27929 c -3.39054,0.0116 -7.14416,2.80012 -9.1875,9.46875 -11.72689,38.27265 -11.61735,108.45986 20.125,106.9375 11.30994,-0.54232 13.79427,-10.82697 9.875,-12.6875 -4.37785,-2.07769 -9.95995,6.95882 -13.28125,1.96875 -14.55557,-21.86831 -11.30693,-66.23821 -1.71875,-91.53125 3.28912,-8.28618 -0.8571,-14.17319 -5.8125,-14.15625 z"
         style="font-size:12px;font-style:normal;font-variant:normal;font-weight:normal;font-stretch:normal;line-height:125%;letter-spacing:0px;word-spacing:0px;fill:#000000;fill-opacity:1;stroke:none;font-family:Angelina;-inkscape-font-specification:Angelina"
         inkscape:connector-curvature="0" />
      <path
         id="path3022"
         d="m -45.84448,902.52929 c -4.50388,0.2149 -8.54411,2.56738 -8.6875,8.28125 l 0,0.0312 c 0.5598,9.56731 20.79177,15.31069 21.09375,-1.3125 -0.13561,-3.84217 -5.99908,-6.92438 -11.5,-7 -0.30336,-0.004 -0.60599,-0.0143 -0.90625,0 z"
         style="font-size:12px;font-style:normal;font-variant:normal;font-weight:normal;font-stretch:normal;line-height:125%;letter-spacing:0px;word-spacing:0px;fill:#000000;fill-opacity:1;stroke:none;font-family:Angelina;-inkscape-font-specification:Angelina"
         inkscape:connector-curvature="0" />
    </g>
    <g
       id="g3075"
       transform="translate(38,0)">
      <path
         id="path3018"
         transform="translate(-831.09448,154.93554)"
         d="m 663.40625,909.5 c -4.132,1.381 -4.08136,6.9245 -5.15625,10.4375 -0.91977,4.4889 -1.56275,9.56725 -2.625,13.71875 -6.89269,-2.8206 -13.62596,3.10735 -17.84375,7.90625 -5.22126,6.2558 -9.89694,13.33855 -12.59375,21.09375 -0.71775,0.5754 -1.45681,1.03305 -2.28125,0.78125 -3.4051,-4.8809 -2.3832,-11.76345 -2.3125,-17.53125 -0.25833,-3.8966 3.58053,-9.36875 -0.40625,-12.28125 -0.74296,-0.3616 -1.63505,-0.5336 -2.46875,-0.4375 -4.93109,1.015 -3.7162,7.08695 -5.125,10.59375 -3.44119,8.3378 -7.64618,17.01245 -14.5,23.03125 -1.06904,0 -0.43891,-2.89285 -0.5,-3.90625 0.95845,-8.6412 5.01574,-16.943 7.28125,-25.25 -0.56552,-3.2197 -5.92934,-4.6338 -7.21875,-1.125 -3.66372,8.0342 -5.34784,16.93835 -6.6875,25.65625 -0.50896,0.5551 -0.93923,1.15915 -1.28125,1.71875 -2.2819,-0.9891 -1.10405,-5.1096 -1.03125,-7.125 0.14644,-4.7641 2.91462,-9.58775 1.875,-14.28125 -0.39757,-1.3985 1.85227,-3.0891 1.3125,-5 0.42923,-3.9139 -1.79878,-8.04195 -6.25,-7.53125 -8.40743,1.7907 -14.11156,9.24845 -19.5,15.40625 -5.11463,7.3517 -11.61818,15.5333 -10.96875,25 0.55986,4.5813 6.14688,6.0158 9.6875,3.6875 6.61754,-3.3151 11.83325,-9.16245 16.5625,-14.46875 -0.16689,5.0829 3.38889,11.1356 9.15625,10.3125 0.42363,-0.01 0.86019,-0.085 1.28125,-0.21875 0.93985,2.2899 2.62879,4.02525 5.46875,3.84375 8.73291,-0.9336 12.77762,-10.4454 16.21875,-17.375 0.64273,5.6111 3.08265,13.6778 9.9375,13.5 -0.0453,3.7896 3.49351,6.89885 7.40625,6.09375 7.80528,-1.0942 12.94691,-8.1412 18.0625,-13.4375 1.42649,-0.8774 4.35259,-6.65885 4.625,-4.53125 0.28842,5.5707 0.57828,13.63155 6.9375,15.59375 3.63755,1.2624 9.08833,-2.9204 5.90625,-6.5625 -1.08962,-2.9839 -4.50226,2.7985 -5.0625,-0.75 -2.06697,-11.4708 -0.0706,-23.6037 2,-35.0625 0.83875,-6.1504 3.63132,-12.0885 4.34375,-18.1875 -0.45635,-1.8051 -2.37817,-3.3949 -4.25,-3.3125 z M 584.625,936.75 c 0.0399,0 0.0461,2.5e-4 0.0625,0.0312 -0.69723,1.6672 -0.83405,3.65965 -0.78125,5.21875 -1.22396,4.0172 -2.6324,8.12325 -5.90625,11.09375 -5.05334,5.3981 -9.11716,12.7678 -16.15625,15.75 -1.3331,-0.2322 0.21543,-2.90655 0.4375,-3.84375 5.34771,-10.1485 12.42445,-19.74445 21.03125,-27.40625 0.2391,-0.1046 1.03298,-0.82035 1.3125,-0.84375 z m 67.625,2.3125 c 3.13517,1.7196 1.55085,6.7972 0,9.3125 -6.00408,7.7964 -12.72079,15.5799 -21.3125,20.375 -2.30063,1.1847 -0.32182,-2.63365 -0.0937,-3.59375 4.43369,-9.1807 10.06329,-18.30665 18,-24.78125 1.02677,-0.6922 2.14126,-1.3136 3.40625,-1.3125 z"
         style="font-size:12px;font-style:normal;font-variant:normal;font-weight:normal;font-stretch:normal;line-height:125%;letter-spacing:0px;word-spacing:0px;fill:#000000;fill-opacity:1;stroke:none;font-family:Angelina;-inkscape-font-specification:Angelina"
         inkscape:connector-curvature="0" />
      <path
         id="path3016"
         transform="translate(-831.09448,154.93554)"
         d="m 779.875,910.53125 c -0.28854,0 -0.58102,0.045 -0.875,0.125 -3.63562,2.5774 -2.89595,8.17065 -4,12.03125 -0.62147,5.6561 -1.26749,11.40145 -1.65625,17.15625 -0.24361,-4.543 -4.31501,-8.53105 -9.03125,-7.53125 -6.39818,0.6747 -11.6547,5.135 -15.625,9.875 0.59968,-3.4151 3.54665,-10.91775 -2.90625,-10.46875 -5.71352,1.2572 -4.81391,8.9541 -5.5,13.3125 -0.84273,14.4241 -3.20645,29.1381 -0.90625,43.5 0.78904,4.9291 4.76759,11.88865 10.65625,10 3.26474,-0.7517 3.15802,-4.4672 2.84375,-7.125 -2.08083,0.5927 -5.46277,3.4859 -6.21875,-0.1875 -2.21869,-7.4918 -1.36103,-17.79895 -0.53125,-24.09375 2.36603,5.4476 10.0854,3.6895 13.71875,0.5 6.16408,-5.3067 11.65498,-12.69855 13.1875,-20.90625 -0.12609,5.7484 0.13335,11.45815 1.09375,17.09375 1.11633,5.6881 5.10786,13.15635 11.96875,11.84375 1.20158,-0.1764 2.30274,-0.8095 3.03125,-1.6875 1.88615,1.3785 4.6298,1.67865 6.8125,0.40625 7.00484,-3.1386 12.35759,-9.31535 17.28125,-14.71875 -0.0452,4.9128 3.06496,10.7112 8.6875,10.3125 1.3268,0.035 2.69422,-0.52725 3.8125,-1.40625 1.11515,1.3524 2.70243,2.16695 4.78125,1.84375 7.73023,-1.4714 11.27567,-9.91135 14.59375,-16.15625 1.23272,-2.616 2.34456,-5.3063 3.4375,-8 2.74218,14.3475 2.33605,31.37625 -7.65625,42.90625 -5.3789,6.3611 -16.33161,4.74285 -19.875,-2.65625 -1.19738,-2.4243 -1.79844,-8.50385 -5.96875,-6.34375 -3.3731,3.1383 -0.15041,8.49415 2.09375,11.40625 5.06716,7.3267 15.43078,10.9621 23.53125,6.46875 9.89465,-5.5924 13.6423,-17.594 15.71875,-28.125 0.16208,-1.3454 0.31474,-2.6922 0.4375,-4.0625 0.42591,1.642 1.17198,3.2237 2.3125,4.6875 5.80089,6.0434 15.62742,2.55335 21.09375,-2.28125 3.28601,-2.8086 6.41857,-6.30375 8.3125,-10.28125 -0.30775,4.3186 -0.71893,8.62885 -0.4375,12.90625 1.14013,4.7892 8.75364,2.5736 7.8125,-2 -0.92433,-9.2224 -0.24497,-19.02975 5.625,-26.53125 1.85417,-2.4451 3.32626,-5.52145 6.25,-6.84375 -0.38569,4.1034 6.15047,4.24 6.03125,0.375 0.28671,-4.0023 -3.35282,-7.11175 -7.28125,-6.59375 -4.94132,0.4069 -8.12808,4.85245 -10.375,8.78125 1.00789,-3.6044 -3.2329,-7.7985 -6.5,-5 -3.70081,3.2605 -0.85224,8.9003 -1.21875,13.0625 0.22958,1.607 0.34918,3.23235 0.375,4.84375 -1.61395,-0.9593 -4.05426,-0.52065 -4.28125,1.84375 -3.86853,6.4825 -9.66684,12.9464 -17.34375,14.5 -2.34983,0.5544 -4.97388,-1.0509 -3.96875,-3.75 0.33421,-2.6472 0.77001,-6.07355 2.125,-7.90625 7.12575,2.7421 13.9217,-2.8602 16.90625,-9 2.8676,-4.5347 5.47921,-12.07815 0.21875,-15.90625 -1.03691,-0.6385 -2.29711,-0.81985 -3.5,-0.65625 -8.42343,1.6389 -13.21346,10.0236 -17.53125,16.6875 -1.70737,2.8869 -3.36832,6.2905 -4.3125,9.8125 -0.0831,-3.0377 -0.34996,-6.0248 -1,-8.9375 -2.74731,-5.7993 -0.94141,-12.96075 -4.34375,-18.40625 -0.82565,-0.8382 -2.06206,-1.3381 -3.25,-1.1875 -3.74339,0.1285 -3.66133,4.4542 -3.21875,7.125 -1.21266,10.1004 -7.80941,18.585 -13.03125,27.0625 -0.7562,1.0815 -1.85098,2.24595 -1.5625,0.0937 -0.33706,-10.4771 4.10857,-20.44535 8.8125,-29.34375 -0.26303,-3.84 -6.15334,-5.36945 -7.75,-1.53125 -4.5529,9.0957 -7.11738,19.34785 -7.9375,29.53125 -0.0138,0.094 -0.0202,0.18565 -0.0312,0.28125 -0.96601,0.6361 -1.76784,1.6666 -2.1875,2.625 -2.05997,-0.4071 -1.37503,-4.10035 -1.28125,-5.78125 0.1561,-5.1967 2.88495,-10.4741 2.125,-15.5625 -0.71724,-1.3084 1.64605,-2.68535 1.21875,-4.40625 0.61396,-4.0524 -1.45941,-8.7255 -6.21875,-8.1875 -8.20689,1.7025 -13.78287,8.89665 -19.0625,14.84375 -4.91535,6.8953 -10.86948,14.4373 -11.4375,23.1875 -0.35518,0.5588 -0.78513,1.61745 -1.875,1.90625 -3.88454,-0.2431 -4.07,-5.7613 -4.625,-8.625 -1.14047,-15.6946 0.38701,-31.5436 3.15625,-46.9375 0.0346,-2.1119 -1.73024,-3.8404 -3.75,-3.8125 z m 99.40625,25.96875 0,0.21875 c -0.885,5.5426 -4.89817,11.2019 -10.21875,13.1875 -2.53557,0.4865 0.7956,-2.4731 1.21875,-3.5 3.03535,-3.1692 5.13736,-7.69005 9,-9.90625 z m -62.8125,0.21875 c 0.0777,-0.032 0.10426,-0.0255 0.0937,0.0625 -0.57923,1.666 -1.07025,3.5415 -0.71875,5.125 -1.35971,3.7115 -2.35658,7.807 -5.53125,10.625 -5.27371,5.5339 -9.39052,13.32015 -16.71875,16.34375 -1.19221,-0.786 0.61175,-3.64575 0.96875,-4.84375 5.56858,-9.8928 12.3712,-19.32805 21,-26.71875 0.1349,0 0.67309,-0.49745 0.90625,-0.59375 z m -51.40625,1.59375 c 2.4198,0.8062 1.0985,4.8624 0.9375,6.75 -2.40109,6.9392 -5.75088,14.7359 -12.4375,18.5 -1.71282,0.8958 -2.89655,0.458 -2,-1.6875 1.64691,-4.1728 -4.12028,-1.84455 -4.21875,-3.84375 2.67725,-7.4161 8.03399,-14.21405 14.53125,-18.71875 0.99903,-0.5318 2.05129,-0.9495 3.1875,-1 z"
         style="font-size:12px;font-style:normal;font-variant:normal;font-weight:normal;font-stretch:normal;line-height:125%;letter-spacing:0px;word-spacing:0px;fill:#000000;fill-opacity:1;stroke:none;font-family:Angelina;-inkscape-font-specification:Angelina"
         inkscape:connector-curvature="0" />
      <path
         id="path3014"
         transform="translate(-831.09448,154.93554)"
         d="m 500.375,911.65625 c -4.26684,1.5566 -4.64967,7.3842 -6.25,11.0625 -2.40014,9.0883 -5.22741,18.4004 -6.25,27.8125 -1.09206,0.1321 -2.06565,0.84695 -2.21875,2.28125 -3.83719,6.4604 -9.66103,12.9732 -17.34375,14.5 -2.45332,0.5808 -4.93623,-1.0662 -3.96875,-3.75 0.29633,-2.6038 0.75504,-6.0829 2.125,-7.875 7.06382,2.7506 13.96618,-2.91155 16.875,-9.03125 2.94227,-4.5235 5.57851,-12.40225 0.0312,-16.03125 -0.99357,-0.5428 -2.14919,-0.6577 -3.28125,-0.5 l 0,-0.0312 c -8.69675,1.7677 -13.46736,10.4248 -17.875,17.3125 -3.95247,6.8231 -7.60219,16.8488 -1.5625,23.5625 6.36247,5.6658 16.08159,1.6703 21.53125,-3.4375 1.9634,-1.7899 3.85914,-3.8633 5.4375,-6.125 0.072,0.974 0.18146,1.93105 0.3125,2.90625 0.28839,2.9864 3.50377,5.05 5.78125,5.0625 -1.67569,4.4326 2.69426,8.4147 7.0625,7.6875 9.60034,-0.7523 16.58237,-8.788 22.90625,-15.25 4.11264,-5.0207 9.34709,-11.6956 6.78125,-18.5625 -3.73309,-6.4277 -12.67708,-5.28895 -18.21875,-2.09375 -7.24034,3.9765 -13.43218,10.54005 -18.03125,16.84375 -0.0838,-14.7499 5.74433,-28.65595 10.8125,-42.21875 0.12848,-2.3782 -2.5484,-4.0878 -4.65625,-4.125 z m -20,24.84375 c -0.74329,5.6509 -4.85825,11.29915 -10.15625,13.40625 -2.73565,0.475 1.14908,-2.9591 1.625,-4.0625 2.85334,-2.9444 4.90534,-7.42095 8.53125,-9.34375 z m 42.21875,8.09375 c 2.40103,-0.1321 2.37242,2.80935 1.3125,4.46875 -4.43709,8.1665 -11.49713,15.0277 -19.28125,19.9375 -1.31328,0.674 -4.28693,2.14475 -5.09375,1.15625 2.04031,-1.619 2.63749,-6.1349 -1,-5.8125 5.48594,-7.6418 11.84467,-15.93105 20.9375,-19.28125 0.85762,-0.2659 1.72754,-0.39495 2.625,-0.40625 0.18215,-0.037 0.33993,-0.0545 0.5,-0.0625 z"
         style="font-size:12px;font-style:normal;font-variant:normal;font-weight:normal;font-stretch:normal;line-height:125%;letter-spacing:0px;word-spacing:0px;fill:#000000;fill-opacity:1;stroke:none;font-family:Angelina;-inkscape-font-specification:Angelina"
         inkscape:connector-curvature="0" />
      <path
         id="path3012"
         d="m -156.34448,1073.498 c -0.17631,-6e-4 -0.34222,0.011 -0.53125,0.031 -4.41753,0.4581 -5.01593,7.4301 -0.5625,8.4062 5.95079,1.4321 6.55951,-8.418 1.09375,-8.4375 z"
         style="font-size:12px;font-style:normal;font-variant:normal;font-weight:normal;font-stretch:normal;line-height:125%;letter-spacing:0px;word-spacing:0px;fill:#000000;fill-opacity:1;stroke:none;font-family:Angelina;-inkscape-font-specification:Angelina"
         inkscape:connector-curvature="0" />
      <path
         id="path3010"
         d="m -380.62573,1082.6543 c -0.19317,0 -0.36788,0.014 -0.5625,0.031 -2.53283,0.2043 -7.47905,2.6626 -5.09375,5.6563 1.57197,1.6119 3.90251,0.048 5.46875,0.375 3.40669,7.2935 1.03065,16.0557 -1.8125,23.25 -0.59119,2.4018 -2.99228,5.2687 -5.3125,2.8125 -4.83659,-5.166 -6.34931,-12.6626 -7.09375,-19.5313 1.55436,-4.1056 -5.35972,-7.3206 -7,-3 -3.44986,10.0005 -6.4261,20.7546 -13.25,29.1563 -0.51799,-1.48 0.10333,-5.1302 0.15625,-7.375 0.23817,-6.3183 2.69679,-12.5222 2.84375,-18.7813 -0.32006,-4.0418 -6.19676,-3.941 -7.0625,-0.25 -2.56663,7.4059 -2.12034,15.5797 -2.625,23.3438 0.38288,4.123 1.54281,11.2654 7.0625,10.75 5.83852,-1.9757 8.07683,-8.7278 10.6875,-13.7188 1.66714,-2.1079 3.34694,-12.62 5,-7.8125 2.63995,5.88 5.96911,13.861 13.21875,14.8125 6.85443,-0.1125 9.5813,-7.9901 11.75,-13.25 3.33374,-7.9643 3.26888,-18.3711 -2.6875,-25.0312 -1.03706,-0.8561 -2.33534,-1.407 -3.6875,-1.4375 z"
         style="font-size:12px;font-style:normal;font-variant:normal;font-weight:normal;font-stretch:normal;line-height:125%;letter-spacing:0px;word-spacing:0px;fill:#000000;fill-opacity:1;stroke:none;font-family:Angelina;-inkscape-font-specification:Angelina"
         inkscape:connector-curvature="0" />
      <path
         id="path3008"
         transform="translate(-831.09448,154.93554)"
         d="m 702.53125,931.65625 c -0.31269,0.011 -0.64647,0.0467 -0.96875,0.0937 -3.07763,0.4637 -5.93029,2.3542 -8.0625,4.1875 -5.22555,0.3282 -6.85095,6.8658 -8.71875,10.75 -2.43374,7.35 -5.5763,16.7791 -0.46875,23.75 4.54691,5.8967 13.48588,3.09025 17.46875,-2.09375 6.1635,-7.8583 12.18585,-18.0568 9.78125,-28.5 -0.79944,-4.5113 -4.34095,-8.345 -9.03125,-8.1875 z m -0.4375,5.96875 c 0.19612,-0.02 0.39102,-0.011 0.59375,0 2.86982,0.9675 2.15863,5.2304 2.21875,7.6875 -1.47003,7.5983 -5.04288,15.39545 -10.71875,20.65625 -1.64188,1.7181 -5.53289,2.3721 -5.625,-1 -1.83993,-9.686 4.32641,-18.4495 9.84375,-25.5625 1.08798,-0.7965 2.31467,-1.64145 3.6875,-1.78125 z"
         style="font-size:12px;font-style:normal;font-variant:normal;font-weight:normal;font-stretch:normal;line-height:125%;letter-spacing:0px;word-spacing:0px;fill:#000000;fill-opacity:1;stroke:none;font-family:Angelina;-inkscape-font-specification:Angelina"
         inkscape:connector-curvature="0" />
      <path
         id="path3006"
         d="m -156.87573,1090.4355 c -0.15266,0 -0.30935,0.04 -0.46875,0.062 -4.72452,1.4261 -4.7036,7.75 -5.65625,11.7813 -1.59276,8.5905 -1.49625,18.962 4.75,25.7187 3.09288,3.3668 10.78231,1.2581 9.96875,-3.75 -0.80709,-2.9226 -3.56387,-2.3257 -5.21875,-0.5312 -3.01749,-2.0007 -2.86153,-6.7209 -3.15625,-10.0313 -0.53498,-6.5187 1.21257,-12.7812 3.25,-18.875 0.3234,-2.247 -1.17887,-4.4129 -3.46875,-4.375 z"
         style="font-size:12px;font-style:normal;font-variant:normal;font-weight:normal;font-stretch:normal;line-height:125%;letter-spacing:0px;word-spacing:0px;fill:#000000;fill-opacity:1;stroke:none;font-family:Angelina;-inkscape-font-specification:Angelina"
         inkscape:connector-curvature="0" />
    </g>
  </g>
</svg>
