<?xml version="1.0" encoding="UTF-8" standalone="no"?>
<!-- Created with Inkscape (http://www.inkscape.org/) -->

<svg
   xmlns:dc="http://purl.org/dc/elements/1.1/"
   xmlns:cc="http://creativecommons.org/ns#"
   xmlns:rdf="http://www.w3.org/1999/02/22-rdf-syntax-ns#"
   xmlns:svg="http://www.w3.org/2000/svg"
   xmlns="http://www.w3.org/2000/svg"
   xmlns:sodipodi="http://sodipodi.sourceforge.net/DTD/sodipodi-0.dtd"
   xmlns:inkscape="http://www.inkscape.org/namespaces/inkscape"
   width="1414"
   height="1000"
   id="svg2"
   version="1.1"
   inkscape:version="0.48.0 r9654"
   sodipodi:docname="airplug.svg"
   inkscape:export-filename="/home/james/airplug/airplug-branding/airplug.png"
   inkscape:export-xdpi="90"
   inkscape:export-ydpi="90">
  <sodipodi:namedview
     id="base"
     pagecolor="#ffffff"
     bordercolor="#666666"
     borderopacity="1.0"
     inkscape:pageopacity="0.0"
     inkscape:pageshadow="2"
     inkscape:zoom="0.35355339"
     inkscape:cx="1254.1275"
     inkscape:cy="464.78771"
     inkscape:document-units="px"
     inkscape:current-layer="layer1"
     showgrid="false"
     showguides="true"
     inkscape:guide-bbox="true"
     inkscape:snap-global="false"
     fit-margin-top="0"
     fit-margin-left="0"
     fit-margin-right="0"
     fit-margin-bottom="0"
     inkscape:window-width="1360"
     inkscape:window-height="720"
     inkscape:window-x="0"
     inkscape:window-y="0"
     inkscape:window-maximized="1">
    <sodipodi:guide
       orientation="1,0"
       position="707,0"
       id="guide6759" />
    <sodipodi:guide
       orientation="1,0"
       position="1414,0"
       id="guide6763" />
    <sodipodi:guide
       orientation="0,1"
       position="0,1000"
       id="guide6765" />
    <sodipodi:guide
       orientation="0,1"
       position="0,500"
       id="guide6767" />
    <sodipodi:guide
       orientation="0,1"
       position="0,0"
       id="guide6782" />
    <sodipodi:guide
       orientation="1,0"
       position="0,0"
       id="guide6784" />
  </sodipodi:namedview>
  <defs
     id="defs4" />
  <metadata
     id="metadata7">
    <rdf:RDF>
      <cc:Work
         rdf:about="">
        <dc:format>image/svg+xml</dc:format>
        <dc:type
           rdf:resource="http://purl.org/dc/dcmitype/StillImage" />
        <dc:title>Airplug: web audio player</dc:title>
      </cc:Work>
    </rdf:RDF>
  </metadata>
  <g
     inkscape:label="Layer 1"
     inkscape:groupmode="layer"
     id="layer1"
     transform="translate(831.09448,-154.93554)">
    <path
       style="fill:#ffffff;fill-opacity:1;stroke:none"
       d="m -88.365573,164.89376 -2.930559,8.79167 -21.002338,13.18752 -20.02551,24.90976 -13.18752,32.72461 0,34.67831 6.34957,27.35188 28.81716,22.46764 32.23616,2.93056 39.074152,-16.11808 L -4.3561394,287.00044 7.3661775,253.29899 4.4355381,211.2943 -16.566818,176.61599 -42.94186,161.47476 -69.805344,159.03263 z"
       id="path3934"
       inkscape:connector-curvature="0" />
    <path
       style="font-size:12px;font-style:normal;font-variant:normal;font-weight:normal;font-stretch:normal;line-height:125%;letter-spacing:0px;word-spacing:0px;fill:#000000;fill-opacity:1;stroke:none;font-family:Angelina;-inkscape-font-specification:Angelina"
       d="M 771.90625 0.03125 C 761.0757 0.12965 735.82414 2.93423 738.9375 15.125 C 713.59165 25.01822 694.14905 48.9651 684 73.53125 C 663.63631 122.82231 678.44073 169.39997 726.75 182.28125 C 716.78416 190.95901 716.265 203.91417 724.40625 200.78125 C 720.93133 239.18616 709.32018 281.68795 681.84375 310.25 C 653.25183 339.97161 623.6533 375.64098 623.3125 419.375 C 623.15965 438.98976 641.64411 457.0431 644.96875 470.84375 C 636.46583 474.86422 642.57858 494.99711 646.03125 505.3125 C 647.5937 505.61129 647.85733 505.24132 650.5 504.875 C 652.51684 509.92404 652.31312 515.96378 655.09375 520.40625 C 655.80806 521.54747 665.7423 518.40901 666.0625 517.375 C 666.3827 516.34099 663.22193 506.58079 661.8125 501.15625 C 663.85888 500.63233 666.43732 500.43849 666.90625 499.34375 C 664.32542 485.88634 661.26262 466.38098 651.625 468.15625 C 649.29869 455.58211 634.9054 441.66889 633.5625 428.875 C 629.35343 388.77483 652.22112 357.6948 677.96875 330.46875 C 718.44754 287.66569 733.97374 251.07565 734 200.84375 C 745.71575 205.36421 738.80167 191.03844 735.125 183.3125 C 781.82252 183.2573 821.01181 157.50688 834.59375 129.71875 C 861.70483 74.2505 826.13763 -0.46161 771.90625 0.03125 z M 766 10.21875 C 816.20362 10.373953 834.55928 62.749604 832.4375 93.59375 C 829.33643 138.67374 765.36633 184.17779 724.59375 168.5625 C 655.82456 142.22492 697.32342 44.58553 741.4375 21.6875 C 744.80016 19.94206 744.41698 16.34117 741.9375 15.125 C 744.53643 14.329 747.00086 12.41462 749.375 11.9375 C 755.2627 10.754283 760.80652 10.202695 766 10.21875 z M 664.09375 522.09375 C 663.47168 522.111 662.73549 522.22359 661.84375 522.4375 C 657.08783 523.57836 656.68536 525.8391 657.25 527.6875 C 658.05725 530.33006 658.92088 531.11439 663.375 530 C 667.8291 528.88561 668.18988 527.46691 667.59375 525.125 C 667.20563 523.60021 666.78938 522.01901 664.09375 522.09375 z M 669 532.46875 C 665.91453 532.43124 656.07757 534.89687 658.59375 537 L 660.59375 538.75 C 661.27383 546.73551 661.15661 550.87626 668.34375 549.21875 C 674.35374 547.83274 673.50064 543.48915 669.84375 536.59375 C 669.21268 535.40382 670.76304 533.59316 669.875 532.65625 C 669.76559 532.54082 669.44078 532.47411 669 532.46875 z M 407.875 591.84375 C 405.99811 591.82865 403.99782 592.05452 401.84375 592.5 C 372.74855 598.51647 352.91875 661.65764 331.78125 710.3125 C 282.85438 725.41051 222.79889 745.02345 192.34375 735.3125 C 161.88856 725.60155 189.50546 689.58006 198.46875 685.71875 C 207.43204 681.85744 200.37612 668.19004 191.84375 676.1875 C 188.94409 678.90535 186.3647 682.58553 179.3125 690.46875 C 161.93113 709.89801 165.49337 739.00306 188.125 745.90625 C 233.64699 754.98383 284.98451 741.02047 324.375 728.03125 C 314.05273 753.08791 301.20762 767.61748 293.4375 792.25 C 288.08505 809.21872 309.6697 809.43166 313.78125 794 C 320.59469 768.42647 333.37838 740.62457 341.9375 721.40625 C 364.81179 712.81784 397.61432 707.09361 422.46875 705.5 C 424.6838 743.357 440.17821 811.85009 475.9375 783.71875 C 479.24777 781.11457 476.60493 772.06616 471.03125 775.96875 C 446.29309 795.28264 438.37851 728.04122 436.34375 705.25 C 448.83871 706.55407 455.92579 710.12459 452.21875 718.21875 C 449.78264 723.53795 455.65937 725.96449 458.90625 722.65625 C 470.19125 711.15659 464.18989 693.19291 435.5 691.8125 C 434.12687 642.40417 436.02839 592.07018 407.875 591.84375 z M 749.71875 593.90625 C 745.36115 593.85815 741.33871 609.46343 737.625 640.9375 C 732.47365 685.58458 723.65371 806.75182 771.8125 799.4375 C 779.16573 798.32118 783.14483 791.74965 779.1875 788.1875 C 775.23022 784.62535 770.10011 789.95267 766.09375 790.15625 C 737.29285 791.61979 754.58071 643.18451 758.75 609.46875 C 759.51197 603.30694 755.27269 593.96846 749.71875 593.90625 z M 403.0625 606.21875 C 420.43443 605.09056 419.04301 655.97627 421.4375 690.53125 C 395.22138 692.27472 374.97317 697.09248 350.25 704.28125 C 364.51394 667.10965 391.81573 606.94882 403.0625 606.21875 z M 502.125 615.53125 C 501.85704 615.52154 501.60049 615.53851 501.34375 615.5625 C 491.4166 616.49017 490.04825 641.82279 507.59375 631.15625 C 512.10506 628.41352 510.20474 618.3944 504.6875 616.125 C 503.78845 615.75517 502.92889 615.56038 502.125 615.53125 z M 1013.2188 648.9375 C 997.07857 649.17238 973.81347 663.65484 953.65625 689.6875 C 941.82555 704.96667 919.53149 743.93493 921.96875 767.25 C 899.0462 783.30178 900.41832 708.77045 907.40625 677.875 C 909.89388 666.87694 887.17638 659.43619 887.46875 679.25 C 887.97471 713.55446 828.79327 811.45576 825.625 767.5625 C 823.73993 741.44664 841.91841 710.02776 848.65625 683.90625 C 851.48776 672.92912 832.30175 672.7717 831.15625 679.53125 C 825.95694 706.06841 792.00335 791.85957 828.25 792.5625 C 849.37805 792.97193 875.19567 750.07251 886.71875 725.125 C 888.99794 744.95357 895.9191 791.68933 924.875 776.59375 C 926.1145 778.64281 927.74387 780.40368 929.84375 781.8125 C 969.09739 808.01601 1013.7012 709.72651 1017.8438 712.8125 C 1032.688 723.8722 1029.695 760.42522 1022.5938 796.5625 C 943.95511 795.00056 886.55968 813.97431 935.09375 870.125 C 976.78344 918.3569 1016.6665 867.82328 1034.8438 809.46875 C 1115.534 806.7854 1193.3531 812.77125 1248.375 808.96875 C 1299.3379 805.44675 1337.5005 793.73768 1372.0312 761.65625 C 1376.5744 757.43528 1369.2289 752.87343 1366.6562 755.1875 C 1335.1716 783.51111 1290.6574 796.51069 1248.125 796.96875 C 1202.0558 798.51825 1110.4163 793.43738 1037.0312 795.9375 C 1049.3827 737.0452 1036.2535 694.06403 1019.0625 693.90625 C 1009.4202 693.81575 957.80417 785.14365 938.03125 774.65625 C 918.40616 764.24689 978.9881 659.54779 1014.2812 661.125 C 1021.0358 661.42472 1015.9215 672.829 1015.8125 678.96875 C 1015.6994 687.74604 1032.1425 687.42769 1031.1875 677.53125 C 1030.1822 665.77428 1029.4676 651.50231 1018 649.34375 C 1016.4944 649.06038 1014.8883 648.9132 1013.2188 648.9375 z M 591.21875 650.59375 C 590.17672 650.57645 589.0735 650.66375 587.9375 650.84375 C 565.92431 654.33182 558.42924 667.56417 545.46875 701 C 547.0036 686.06882 548.86349 677.36901 546.125 665.875 C 544.1314 657.5077 528.54787 660.32647 529.3125 669.78125 C 530.9466 689.98469 535.7023 716.48293 530.96875 766.28125 C 529.57143 780.98114 538.82807 782.95551 543.53125 780.03125 C 548.02452 777.23763 551.46443 774.44235 548.3125 750.6875 C 544.34143 720.75897 564.89793 673.56518 591.40625 663.90625 C 595.73241 662.33017 593.6403 672.06485 600.03125 672.5625 C 611.70334 671.9438 606.84921 650.85403 591.21875 650.59375 z M 705.15625 665.125 C 683.43966 665.39783 650.76871 690.64394 638.625 713 C 641.01779 700.68374 641.63596 690.40009 645.21875 676.34375 C 649.08209 661.18693 624.42598 662.5563 624.875 687.46875 C 623.66124 723.25541 598.8805 882.00225 651.125 875.15625 C 659.264 874.08965 660.7283 864.14345 647.375 867.21875 C 626.46778 864.64285 629.71735 782.96707 639.40625 747.84375 C 650.91779 706.11357 715.20627 650.57694 710.84375 692.25 C 707.37434 725.39233 687.08671 761.43407 655.28125 770.8125 C 650.40033 770.91542 650.91665 764.87211 651.6875 760.53125 C 653.55012 747.83779 644.99871 748.26456 642.96875 761.8125 C 640.95587 775.24678 645.63888 782.90625 656.3125 782.90625 C 696.65486 780.11489 723.78341 724.13827 725.625 697.59375 C 727.27736 673.77676 718.18621 664.9613 705.15625 665.125 z M 498.9375 674.34375 C 495.54696 674.35535 491.79334 677.14387 489.75 683.8125 C 478.02311 722.08515 478.13265 792.27236 509.875 790.75 C 521.18494 790.20768 523.66927 779.92303 519.75 778.0625 C 515.37215 775.98481 509.79005 785.02132 506.46875 780.03125 C 491.91318 758.16294 495.16182 713.79304 504.75 688.5 C 508.03912 680.21382 503.8929 674.32681 498.9375 674.34375 z M 785.25 747.59375 C 780.74612 747.80865 776.70589 750.16113 776.5625 755.875 L 776.5625 755.90625 C 777.1223 765.47356 797.35427 771.21694 797.65625 754.59375 C 797.52064 750.75158 791.65717 747.66937 786.15625 747.59375 C 785.85289 747.58958 785.55026 747.57942 785.25 747.59375 z M 1020.25 809.46875 C 1002.2696 873.17468 968.69024 889.2948 945.96875 862.5625 C 904.94727 814.29899 968.44654 811.89423 1020.25 809.46875 z M 663.40625 909.5 C 659.27425 910.881 659.32489 916.4245 658.25 919.9375 C 657.33023 924.4264 656.68725 929.50475 655.625 933.65625 C 648.73231 930.83565 641.99904 936.7636 637.78125 941.5625 C 632.55999 947.81824 627.88431 954.90103 625.1875 962.65625 C 624.46975 963.23165 623.73069 963.6893 622.90625 963.4375 C 619.50115 958.5566 620.52305 951.67405 620.59375 945.90625 C 620.33542 942.00965 624.17428 936.5375 620.1875 933.625 C 619.44454 933.2634 618.55245 933.0914 617.71875 933.1875 C 612.78766 934.2025 614.00255 940.27445 612.59375 943.78125 C 609.15256 952.11905 604.94757 960.7937 598.09375 966.8125 C 597.02471 966.8125 597.65484 963.91965 597.59375 962.90625 C 598.5522 954.26505 602.60949 945.96325 604.875 937.65625 C 604.30948 934.43655 598.94566 933.02245 597.65625 936.53125 C 593.99253 944.56542 592.30841 953.46953 590.96875 962.1875 C 590.45979 962.74257 590.02952 963.3467 589.6875 963.90625 C 587.4056 962.91715 588.58345 958.79665 588.65625 956.78125 C 588.80269 952.01715 591.57087 947.1935 590.53125 942.5 C 590.13368 941.1015 592.38352 939.4109 591.84375 937.5 C 592.27298 933.5861 590.04497 929.45805 585.59375 929.96875 C 577.18632 931.75945 571.48219 939.2172 566.09375 945.375 C 560.97912 952.7267 554.47557 960.9083 555.125 970.375 C 555.68486 974.9563 561.27188 976.3908 564.8125 974.0625 C 571.43004 970.7474 576.64575 964.90005 581.375 959.59375 C 581.20811 964.67665 584.76389 970.72935 590.53125 969.90625 C 590.95488 969.8992 591.39144 969.82119 591.8125 969.6875 C 592.75235 971.97732 594.44129 973.7128 597.28125 973.53125 C 606.01416 972.59765 610.05887 963.08585 613.5 956.15625 C 614.14273 961.76732 616.58265 969.83403 623.4375 969.65625 C 623.39223 973.44583 626.93101 976.55509 630.84375 975.75 C 638.64903 974.6558 643.79066 967.6088 648.90625 962.3125 C 650.33274 961.4351 653.25884 955.65365 653.53125 957.78125 C 653.81967 963.35195 654.10953 971.4128 660.46875 973.375 C 664.1063 974.6374 669.55708 970.4546 666.375 966.8125 C 665.28538 963.8286 661.87274 969.611 661.3125 966.0625 C 659.24553 954.5917 661.24194 942.4588 663.3125 931 C 664.15125 924.8496 666.94382 918.9115 667.65625 912.8125 C 667.1999 911.0074 665.27808 909.4176 663.40625 909.5 z M 779.875 910.53125 C 779.58646 910.53524 779.29398 910.57583 779 910.65625 C 775.36438 913.23365 776.10405 918.8269 775 922.6875 C 774.37853 928.34354 773.73251 934.089 773.34375 939.84375 C 773.10014 935.30074 769.02874 931.31266 764.3125 932.3125 C 757.91432 932.9872 752.6578 937.4475 748.6875 942.1875 C 749.28718 938.7724 752.23415 931.26975 745.78125 931.71875 C 740.06773 932.97595 740.96734 940.67285 740.28125 945.03125 C 739.43852 959.45535 737.0748 974.16935 739.375 988.53125 C 740.16404 993.46035 744.14259 1000.4199 750.03125 998.53125 C 753.29599 997.77955 753.18927 994.06405 752.875 991.40625 C 750.79417 991.99895 747.41223 994.89215 746.65625 991.21875 C 744.43756 983.72695 745.29522 973.4198 746.125 967.125 C 748.49103 972.5726 756.2104 970.8145 759.84375 967.625 C 766.00783 962.31821 771.49873 954.92646 773.03125 946.71875 C 772.90516 952.46711 773.1646 958.17682 774.125 963.8125 C 775.24133 969.5006 779.23286 976.96885 786.09375 975.65625 C 787.29533 975.47983 788.39649 974.84671 789.125 973.96875 C 791.01115 975.34727 793.7548 975.64737 795.9375 974.375 C 802.94234 971.2364 808.29509 965.05965 813.21875 959.65625 C 813.17351 964.56905 816.28371 970.36745 821.90625 969.96875 C 823.23305 970.00378 824.60047 969.44148 825.71875 968.5625 C 826.8339 969.91486 828.42118 970.72942 830.5 970.40625 C 838.23023 968.93485 841.77567 960.4949 845.09375 954.25 C 846.32647 951.634 847.43831 948.9437 848.53125 946.25 C 851.27343 960.5975 850.8673 977.62625 840.875 989.15625 C 835.4961 995.51735 824.54339 993.8991 821 986.5 C 819.80262 984.0757 819.20156 977.99615 815.03125 980.15625 C 811.65815 983.29455 814.88084 988.6504 817.125 991.5625 C 822.19216 998.8892 832.55578 1002.5247 840.65625 998.03125 C 850.5509 992.43885 854.29855 980.43725 856.375 969.90625 C 856.53708 968.5609 856.68974 967.2141 856.8125 965.84375 C 857.23841 967.48571 857.98448 969.06748 859.125 970.53125 C 864.92589 976.57465 874.75242 973.0846 880.21875 968.25 C 883.50476 965.44131 886.63732 961.94627 888.53125 957.96875 C 888.2235 962.28738 887.81232 966.59751 888.09375 970.875 C 889.23388 975.6642 896.84739 973.4486 895.90625 968.875 C 894.98192 959.6526 895.66128 949.84525 901.53125 942.34375 C 903.38542 939.89865 904.85751 936.8223 907.78125 935.5 C 907.39556 939.6034 913.93172 939.74 913.8125 935.875 C 914.09921 931.8727 910.45968 928.76325 906.53125 929.28125 C 901.58993 929.68815 898.40317 934.1337 896.15625 938.0625 C 897.16414 934.4581 892.92335 930.264 889.65625 933.0625 C 885.95544 936.323 888.80401 941.9628 888.4375 946.125 C 888.66708 947.73201 888.78668 949.35731 888.8125 950.96875 C 887.19855 950.00941 884.75824 950.44804 884.53125 952.8125 C 880.66272 959.295 874.86441 965.7589 867.1875 967.3125 C 864.83767 967.8669 862.21362 966.2616 863.21875 963.5625 C 863.55296 960.9153 863.98876 957.48895 865.34375 955.65625 C 872.4695 958.39835 879.26545 952.79605 882.25 946.65625 C 885.1176 942.12155 887.72921 934.5781 882.46875 930.75 C 881.43184 930.1115 880.17164 929.93015 878.96875 930.09375 C 870.54532 931.73265 865.75529 940.11735 861.4375 946.78125 C 859.73013 949.66815 858.06918 953.07174 857.125 956.59375 C 857.04191 953.55601 856.77504 950.56892 856.125 947.65625 C 853.37769 941.85695 855.18359 934.6955 851.78125 929.25 C 850.9556 928.4118 849.71919 927.9119 848.53125 928.0625 C 844.78786 928.191 844.86992 932.5167 845.3125 935.1875 C 844.09984 945.2879 837.50309 953.7725 832.28125 962.25 C 831.52505 963.3315 830.43027 964.49615 830.71875 962.34375 C 830.38169 951.86665 834.82732 941.8984 839.53125 933 C 839.26822 929.16 833.37791 927.63055 831.78125 931.46875 C 827.22835 940.56445 824.66387 950.8166 823.84375 961 C 823.82992 961.09379 823.82352 961.18569 823.8125 961.28125 C 822.84649 961.91738 822.04466 962.94789 821.625 963.90625 C 819.56503 963.49915 820.24997 959.8059 820.34375 958.125 C 820.49985 952.9283 823.2287 947.6509 822.46875 942.5625 C 821.75151 941.2541 824.1148 939.87715 823.6875 938.15625 C 824.30146 934.10385 822.22809 929.43075 817.46875 929.96875 C 809.26186 931.67125 803.68588 938.8654 798.40625 944.8125 C 793.4909 951.70774 787.53677 959.24979 786.96875 968 C 786.61357 968.55872 786.18362 969.61744 785.09375 969.90625 C 781.20921 969.66315 781.02375 964.14495 780.46875 961.28125 C 779.32828 945.58665 780.85576 929.73765 783.625 914.34375 C 783.65958 912.23185 781.89476 910.50334 779.875 910.53125 z M 500.375 911.65625 C 496.10816 913.21285 495.72533 919.04045 494.125 922.71875 C 491.72486 931.80709 488.89759 941.11913 487.875 950.53125 C 486.78294 950.66331 485.80935 951.3782 485.65625 952.8125 C 481.81906 959.2729 475.99522 965.7857 468.3125 967.3125 C 465.85918 967.8933 463.37627 966.2463 464.34375 963.5625 C 464.64008 960.9587 465.09879 957.4796 466.46875 955.6875 C 473.53257 958.4381 480.43493 952.77595 483.34375 946.65625 C 486.28602 942.13275 488.92221 934.254 483.375 930.625 C 482.38143 930.0822 481.22581 929.9673 480.09375 930.125 L 480.09375 930.09375 C 471.397 931.86145 466.62639 940.51855 462.21875 947.40625 C 458.26628 954.22935 454.61656 964.25505 460.65625 970.96875 C 467.01872 976.63455 476.73784 972.63905 482.1875 967.53125 C 484.1509 965.74133 486.04664 963.66795 487.625 961.40625 C 487.69704 962.3803 487.80646 963.33725 487.9375 964.3125 C 488.22589 967.2989 491.44127 969.3625 493.71875 969.375 C 492.04306 973.8076 496.41301 977.7897 500.78125 977.0625 C 510.38159 976.3102 517.36362 968.2745 523.6875 961.8125 C 527.80014 956.7918 533.03459 950.1169 530.46875 943.25 C 526.73566 936.8223 517.79167 937.96105 512.25 941.15625 C 505.00966 945.13275 498.81782 951.6963 494.21875 958 C 494.13495 943.2501 499.96308 929.34405 505.03125 915.78125 C 505.15973 913.40305 502.48285 911.69345 500.375 911.65625 z M 674.75 918.5625 C 674.57369 918.56187 674.40778 918.57326 674.21875 918.59375 C 669.80122 919.05185 669.20282 926.0239 673.65625 927 C 679.60704 928.43201 680.21576 918.58192 674.75 918.5625 z M 450.46875 927.71875 C 450.27558 927.71439 450.10087 927.73298 449.90625 927.75 C 447.37342 927.9543 442.4272 930.41255 444.8125 933.40625 C 446.38447 935.01815 448.71501 933.45455 450.28125 933.78125 C 453.68794 941.07475 451.3119 949.83695 448.46875 957.03125 C 447.87756 959.43305 445.47647 962.29995 443.15625 959.84375 C 438.31966 954.67775 436.80694 947.1812 436.0625 940.3125 C 437.61686 936.2069 430.70278 932.9919 429.0625 937.3125 C 425.61264 947.313 422.6364 958.06705 415.8125 966.46875 C 415.29451 964.98875 415.91583 961.33855 415.96875 959.09375 C 416.20692 952.77545 418.66554 946.5716 418.8125 940.3125 C 418.49244 936.2707 412.61574 936.3715 411.75 940.0625 C 409.18337 947.4684 409.62966 955.64215 409.125 963.40625 C 409.50788 967.52925 410.66781 974.67165 416.1875 974.15625 C 422.02602 972.18055 424.26433 965.4285 426.875 960.4375 C 428.54214 958.3296 430.22194 947.8175 431.875 952.625 C 434.51495 958.505 437.84411 966.486 445.09375 967.4375 C 451.94818 967.325 454.67505 959.4474 456.84375 954.1875 C 460.17749 946.2232 460.11263 935.81635 454.15625 929.15625 C 453.11919 928.30015 451.82091 927.7493 450.46875 927.71875 z M 702.53125 931.65625 C 702.21856 931.66675 701.88478 931.70293 701.5625 931.75 C 698.48487 932.2137 695.63221 934.1042 693.5 935.9375 C 688.27445 936.2657 686.64905 942.8033 684.78125 946.6875 C 682.34751 954.0375 679.20495 963.4666 684.3125 970.4375 C 688.85941 976.3342 697.79838 973.52775 701.78125 968.34375 C 707.94475 960.48545 713.9671 950.28695 711.5625 939.84375 C 710.76306 935.33241 707.22155 931.49879 702.53125 931.65625 z M 674.21875 935.5 C 674.06609 935.50253 673.9094 935.53994 673.75 935.5625 C 669.02548 936.9886 669.0464 943.31245 668.09375 947.34375 C 666.50099 955.93425 666.5975 966.3058 672.84375 973.0625 C 675.93663 976.4293 683.62606 974.3206 682.8125 969.3125 C 682.00541 966.3899 679.24863 966.98675 677.59375 968.78125 C 674.57626 966.78055 674.73222 962.0604 674.4375 958.75 C 673.90252 952.2313 675.65007 945.9688 677.6875 939.875 C 678.0109 937.62791 676.50863 935.46201 674.21875 935.5 z M 480.375 936.5 C 479.63171 942.1509 475.51675 947.79915 470.21875 949.90625 C 467.4831 950.38125 471.36783 946.94715 471.84375 945.84375 C 474.69709 942.89935 476.74909 938.4228 480.375 936.5 z M 879.28125 936.5 L 879.28125 936.71875 C 878.39625 942.26135 874.38308 947.92065 869.0625 949.90625 C 866.52693 950.39275 869.8581 947.43315 870.28125 946.40625 C 873.3166 943.23705 875.41861 938.7162 879.28125 936.5 z M 816.46875 936.71875 C 816.54647 936.68664 816.57301 936.69245 816.5625 936.78125 C 815.98327 938.44725 815.49225 940.32275 815.84375 941.90625 C 814.48404 945.61775 813.48717 949.71325 810.3125 952.53125 C 805.03879 958.06515 800.92198 965.8514 793.59375 968.875 C 792.40154 968.089 794.2055 965.22925 794.5625 964.03125 C 800.13108 954.13845 806.9337 944.7032 815.5625 937.3125 C 815.6974 937.3125 816.23559 936.81508 816.46875 936.71875 z M 584.625 936.75 C 584.66493 936.74666 584.67111 936.75199 584.6875 936.78125 C 583.99027 938.44845 583.85345 940.4409 583.90625 942 C 582.68229 946.0172 581.27385 950.12325 578 953.09375 C 572.94666 958.49185 568.88284 965.86155 561.84375 968.84375 C 560.51065 968.61155 562.05918 965.9372 562.28125 965 C 567.62896 954.8515 574.7057 945.25555 583.3125 937.59375 C 583.5516 937.48919 584.34548 936.77339 584.625 936.75 z M 702.09375 937.625 C 702.28987 937.60503 702.48477 937.61401 702.6875 937.625 C 705.55732 938.5925 704.84613 942.8554 704.90625 945.3125 C 703.43622 952.9108 699.86337 960.70795 694.1875 965.96875 C 692.54562 967.68685 688.65461 968.34085 688.5625 964.96875 C 686.72257 955.28275 692.88891 946.51925 698.40625 939.40625 C 699.49423 938.60974 700.72092 937.76478 702.09375 937.625 z M 765.0625 938.3125 C 767.4823 939.1187 766.161 943.1749 766 945.0625 C 763.59891 952.0017 760.24912 959.7984 753.5625 963.5625 C 751.84968 964.4583 750.66595 964.0205 751.5625 961.875 C 753.20941 957.7022 747.44222 960.03045 747.34375 958.03125 C 750.021 950.61515 755.37774 943.8172 761.875 939.3125 C 762.87403 938.7807 763.92629 938.363 765.0625 938.3125 z M 652.25 939.0625 C 655.38517 940.7821 653.80085 945.8597 652.25 948.375 C 646.24592 956.1714 639.52921 963.9549 630.9375 968.75 C 628.63687 969.9347 630.61573 966.11635 630.84375 965.15625 C 635.27744 955.97555 640.90704 946.8496 648.84375 940.375 C 649.87052 939.6828 650.98501 939.0614 652.25 939.0625 z M 522.59375 944.59375 C 524.99478 944.46165 524.96617 947.40303 523.90625 949.0625 C 519.46916 957.229 512.40912 964.0902 504.625 969 C 503.31172 969.674 500.33807 971.14475 499.53125 970.15625 C 501.57156 968.53725 502.16874 964.02135 498.53125 964.34375 C 504.01719 956.70195 510.37592 948.4127 519.46875 945.0625 C 520.32637 944.7966 521.19629 944.66755 522.09375 944.65625 C 522.2759 944.61875 522.43368 944.60256 522.59375 944.59375 z "
       transform="translate(-831.09448,154.93554)"
       id="path4198" />
  </g>
</svg>
